<?xml version="1.0" encoding="UTF-8"?>
<svg width="269px" height="289px" viewBox="0 0 269 289" version="1.1" xmlns="http://www.w3.org/2000/svg" xmlns:xlink="http://www.w3.org/1999/xlink">
    <!-- Generator: Sketch 51.2 (57519) - http://www.bohemiancoding.com/sketch -->
    <title>Prava-strana-hore Copy 2</title>
    <desc>Created with Sketch.</desc>
    <defs/>
    <g id="Symbols" stroke="none" stroke-width="1" fill="none" fill-rule="evenodd">
        <g id="FOOTER_2" transform="translate(-68.000000, -55.000000)">
            <g id="FOOTER">
                <g id="Prava-strana-hore-Copy-2" transform="translate(202.500000, 199.500000) rotate(-360.000000) translate(-202.500000, -199.500000) translate(68.000000, 55.000000)">
                    <polygon id="Fill-7-Copy-2" fill="#E42634" transform="translate(201.728248, 45.500000) rotate(-90.000000) translate(-201.728248, -45.500000) " points="199.228248 67.5 204.228248 67.5 204.228248 23.5 199.228248 23.5"/>
                    <polygon id="Fill-7-Copy-3" fill="#E42634" transform="translate(3.000000, 195.500000) rotate(-180.000000) translate(-3.000000, -195.500000) " points="0.5 217.5 5.5 217.5 5.5 173.5 0.5 173.5"/>
                    <polygon id="Fill-7-Copy" fill="#0054A1" points="108 160 113 160 113 116 108 116"/>
                    <polygon id="Fill-11" fill="#D1D2D4" points="224 203 269 203 269 198 224 198"/>
                    <polygon id="Fill-11-Copy" fill="#D1D2D4" transform="translate(38.500000, 22.500000) rotate(-90.000000) translate(-38.500000, -22.500000) " points="16 25 61 25 61 20 16 20"/>
                    <polygon id="Fill-13" fill="#0054A1" points="72 289 117 289 117 284 72 284"/>
                </g>
            </g>
        </g>
    </g>
</svg>