<svg xmlns="http://www.w3.org/2000/svg">


<symbol viewBox="0 0 16 16" id="s_ard">
    <path d="M7,1.209l0,11.17l-4.88,-4.88c-0.39,-0.39 -1.03,-0.39 -1.42,-0c-0.39,0.39 -0.39,1.02 -0,1.41l6.59,6.59c0.39,0.39 1.02,0.39 1.41,-0l6.6,-6.58c0.39,-0.39 0.39,-1.02 0,-1.41c-0.39,-0.39 -1.02,-0.39 -1.41,-0l-4.89,4.87l0,-11.17c0,-0.55 -0.45,-1 -1,-1c-0.55,-0 -1,0.45 -1,1Z" />
</symbol>
<symbol viewBox="0 0 16 16" id="s_arl">
    <path d="M14.791,7l-11.17,0l4.88,-4.88c0.39,-0.39 0.39,-1.03 0,-1.42c-0.39,-0.39 -1.02,-0.39 -1.41,-0l-6.59,6.59c-0.39,0.39 -0.39,1.02 0,1.41l6.58,6.6c0.39,0.39 1.02,0.39 1.41,0c0.39,-0.39 0.39,-1.02 0,-1.41l-4.87,-4.89l11.17,0c0.55,0 1,-0.45 1,-1c0,-0.55 -0.45,-1 -1,-1Z" />
</symbol>
<symbol viewBox="0 0 16 16" id="s_arr">
    <path d="M1.209,9l11.17,-0l-4.88,4.88c-0.39,0.39 -0.39,1.03 -0,1.42c0.39,0.39 1.02,0.39 1.41,0l6.59,-6.59c0.39,-0.39 0.39,-1.02 -0,-1.41l-6.58,-6.6c-0.39,-0.39 -1.02,-0.39 -1.41,-0c-0.39,0.39 -0.39,1.02 -0,1.41l4.87,4.89l-11.17,-0c-0.55,-0 -1,0.45 -1,1c-0,0.55 0.45,1 1,1Z" />
</symbol>
<symbol viewBox="0 0 16 16" id="s_aru">
    <path d="M9,14.791l-0,-11.17l4.88,4.88c0.39,0.39 1.03,0.39 1.42,0c0.39,-0.39 0.39,-1.02 0,-1.41l-6.59,-6.59c-0.39,-0.39 -1.02,-0.39 -1.41,0l-6.6,6.58c-0.39,0.39 -0.39,1.02 -0,1.41c0.39,0.39 1.02,0.39 1.41,0l4.89,-4.87l-0,11.17c-0,0.55 0.45,1 1,1c0.55,0 1,-0.45 1,-1Z" />
</symbol>

<symbol viewBox="0 0 20 20" id="s_ar2r">
  <path d="M4.998,19.015c0.49,0.49 1.28,0.49 1.77,0l8.31,-8.31c0.39,-0.39 0.39,-1.02 0,-1.41l-8.31,-8.31c-0.49,-0.49 -1.28,-0.49 -1.77,-0c-0.49,0.49 -0.49,1.28 0,1.77l7.24,7.25l-7.25,7.25c-0.48,0.48 -0.48,1.28 0.01,1.76Z" />  
</symbol>
<symbol viewBox="0 0 20 20" id="s_ar2u">
  <path d="M19.015,15.002c0.49,-0.49 0.49,-1.28 0,-1.77l-8.31,-8.31c-0.39,-0.39 -1.02,-0.39 -1.41,-0l-8.31,8.31c-0.49,0.49 -0.49,1.28 -0,1.77c0.49,0.49 1.28,0.49 1.77,-0l7.25,-7.24l7.25,7.25c0.48,0.48 1.28,0.48 1.76,-0.01Z"/>
</symbol>
<symbol viewBox="0 0 20 20" id="s_ar2l">
  <path d="M15.002,0.985c-0.49,-0.49 -1.28,-0.49 -1.77,-0l-8.31,8.31c-0.39,0.39 -0.39,1.02 -0,1.41l8.31,8.31c0.49,0.49 1.28,0.49 1.77,0c0.49,-0.49 0.49,-1.28 -0,-1.77l-7.24,-7.25l7.25,-7.25c0.48,-0.48 0.48,-1.28 -0.01,-1.76Z" />
</symbol>
<symbol viewBox="0 0 20 20" id="s_ar2d">
  <path d="M0.985,4.998c-0.49,0.49 -0.49,1.28 -0,1.77l8.31,8.31c0.39,0.39 1.02,0.39 1.41,0l8.31,-8.31c0.49,-0.49 0.49,-1.28 0,-1.77c-0.49,-0.49 -1.28,-0.49 -1.77,0l-7.25,7.24l-7.25,-7.25c-0.48,-0.48 -1.28,-0.48 -1.76,0.01Z" />
</symbol>


</svg>
