<svg width="299" height="41" viewBox="0 0 299 41" fill="none" xmlns="http://www.w3.org/2000/svg">
<path fill-rule="evenodd" clip-rule="evenodd" d="M16.5476 10.8449C15.4326 10.0414 14.1615 9.4751 12.8143 9.18158C11.3076 8.81079 9.7591 8.63191 8.20652 8.64931H0V33.9652H8.20652V27.9107C9.7591 27.9281 11.3076 27.7492 12.8143 27.3784C14.1615 27.0849 15.4326 26.5185 16.5476 25.7151C17.6295 24.9426 18.497 23.9129 19.0701 22.7211C19.7091 21.5235 20.0118 20.0265 20.0118 18.2634C20.0608 16.7245 19.7379 15.1963 19.0701 13.8056C18.496 12.6235 17.6281 11.6049 16.5476 10.8449ZM10.8972 20.3591C10.4263 20.8249 9.65276 21.091 8.54286 21.091H8.20652V15.469H8.54286C9.65276 15.469 10.4263 15.7018 10.8972 16.2008C11.392 16.7729 11.645 17.5116 11.6035 18.2634C11.6502 19.0259 11.3972 19.7768 10.8972 20.3591ZM32.0189 8.64931H23.476V33.9652H39.1155V27.3119H32.0189V8.64931ZM62.1207 1.26413H56.4367L53.2415 7.15231H57.4793L62.1207 1.26413ZM51.9634 8.64931L42.2098 33.9652H50.3154L51.1562 31.6698H58.9592L59.8 33.9652H67.872L58.1183 8.64931H51.9634ZM53.3088 26.081L55.0577 21.6565L56.773 26.081H53.3088ZM85.3949 18.3964L78.2983 8.64931H71.538V33.9652H79.61V24.2513L86.673 33.9652H93.4333V8.64931H85.3949V18.3964ZM147.785 11.9094C146.546 10.7025 145.085 9.74252 143.48 9.08177C141.827 8.3798 140.048 8.01778 138.25 8.01778C136.451 8.01778 134.672 8.3798 133.02 9.08177C131.415 9.74252 129.953 10.7025 128.715 11.9094C127.492 13.1267 126.511 14.5597 125.822 16.1343C125.112 17.7686 124.746 19.5286 124.746 21.3072C124.746 23.0859 125.112 24.8459 125.822 26.4802C126.503 28.059 127.485 29.4934 128.715 30.705C129.952 31.922 131.413 32.8931 133.02 33.566C134.678 34.2459 136.455 34.5959 138.25 34.5959C140.044 34.5959 141.822 34.2459 143.48 33.566C145.086 32.8931 146.548 31.922 147.785 30.705C149.014 29.4934 149.996 28.059 150.677 26.4802C151.387 24.8459 151.753 23.0859 151.753 21.3072C151.753 19.5286 151.387 17.7686 150.677 16.1343C149.988 14.5597 149.007 13.1267 147.785 11.9094ZM143.211 23.3864C142.947 24.0213 142.558 24.5982 142.068 25.0835C141.577 25.5689 140.994 25.9532 140.352 26.2141C139.002 26.7455 137.497 26.7455 136.148 26.2141C135.506 25.9532 134.922 25.5689 134.432 25.0835C133.941 24.5982 133.553 24.0213 133.289 23.3864C132.993 22.7385 132.844 22.0346 132.852 21.3239C132.841 20.6128 132.99 19.9082 133.289 19.2613C133.549 18.6249 133.939 18.0476 134.432 17.5648C134.923 17.0799 135.506 16.6956 136.148 16.4337C136.811 16.1489 137.526 16.002 138.25 16.002C138.973 16.002 139.688 16.1489 140.352 16.4337C140.993 16.6956 141.576 17.0799 142.067 17.5648C142.561 18.0476 142.95 18.6249 143.211 19.2613C143.509 19.9082 143.659 20.6128 143.648 21.3239C143.655 22.0346 143.506 22.7385 143.211 23.3864ZM173.75 21.4569C173.3 20.9334 172.78 20.4743 172.202 20.093C172.596 19.7792 172.927 19.3956 173.178 18.9619C173.442 18.5091 173.656 18.0295 173.817 17.5315C174.061 16.8716 174.176 16.1714 174.153 15.469C174.163 14.4368 173.945 13.415 173.514 12.475C173.093 11.6489 172.482 10.9313 171.732 10.3792C170.924 9.76419 169.997 9.32233 169.007 9.08177C167.856 8.77839 166.667 8.63288 165.476 8.64931H155.419V33.9652H165.879C167.213 33.9761 168.54 33.7854 169.815 33.3996C170.9 33.0713 171.907 32.528 172.774 31.8028C173.586 31.1108 174.23 30.2466 174.658 29.2746C175.104 28.2339 175.322 27.1114 175.297 25.9812C175.317 25.0613 175.157 24.1463 174.826 23.2866C174.545 22.635 174.184 22.0204 173.75 21.4569ZM163.357 14.604H164.265C165.543 14.604 166.182 15.1696 166.182 16.3339C166.182 17.4982 165.543 18.097 164.265 18.097H163.357V14.604ZM164.265 28.0105H163.357V23.586H164.265C166.216 23.586 167.191 24.3179 167.191 25.7816C167.191 27.2453 166.216 28.0105 164.265 28.0105ZM193.19 18.3964L186.093 8.64931H179.333V33.9652H187.405V24.2513L194.468 33.9652H201.228V8.64931H193.19V18.3964ZM227.933 11.9094C226.694 10.7025 225.233 9.74252 223.628 9.08177C221.972 8.37286 220.185 8.01042 218.381 8.01725C216.587 8.01019 214.812 8.37274 213.168 9.08177C211.563 9.74252 210.101 10.7025 208.863 11.9094C207.629 13.1178 206.647 14.553 205.97 16.1343C205.261 17.7686 204.895 19.5286 204.895 21.3072C204.895 23.0859 205.261 24.8459 205.97 26.4802C206.639 28.0657 207.623 29.5023 208.863 30.705C210.1 31.922 211.561 32.8931 213.168 33.566C214.814 34.2645 216.59 34.6158 218.381 34.5972C220.183 34.6155 221.97 34.2644 223.628 33.566C225.234 32.8931 226.696 31.922 227.933 30.705C229.162 29.4934 230.144 28.059 230.825 26.4802C231.535 24.8459 231.901 23.0859 231.901 21.3072C231.901 19.5286 231.535 17.7686 230.825 16.1343C230.136 14.5597 229.155 13.1267 227.933 11.9094ZM223.359 23.3864C223.095 24.0213 222.706 24.5982 222.216 25.0835C221.725 25.5689 221.142 25.9532 220.5 26.2141C219.827 26.4838 219.107 26.6194 218.381 26.6133C217.666 26.6194 216.957 26.4837 216.296 26.2141C215.661 25.9398 215.08 25.5569 214.58 25.083C214.09 24.5973 213.702 24.0208 213.437 23.3864C213.141 22.7385 212.992 22.0346 213 21.3239C212.989 20.6128 213.138 19.9082 213.437 19.2613C213.686 18.6187 214.076 18.0391 214.58 17.5648C215.072 17.0799 215.654 16.6956 216.296 16.4337C216.95 16.1382 217.662 15.9905 218.381 16.0012C219.111 15.99 219.834 16.1376 220.5 16.4337C221.141 16.6956 221.724 17.0799 222.215 17.5648C222.709 18.0476 223.098 18.6249 223.359 19.2613C223.657 19.9082 223.807 20.6128 223.796 21.3239C223.803 22.0346 223.654 22.7385 223.359 23.3864ZM245.22 19.6273L240.882 8.64931H231.902L241.924 33.9652H248.584L258.606 8.64931H249.626L245.22 19.6273ZM271.488 13.972L268.528 8.64931H259.38L267.351 23.0537V33.9652H275.558V23.0537L283.562 8.64931H274.414L271.488 13.972ZM295.536 0H287.195V3.42646H295.536V11.61H299V0H295.536ZM295.536 36.9259H287.195V40.3524H299V28.7091H295.536V36.9259ZM112.907 28.9087H109.409V40.5187H121.214V37.0922H112.907V28.9087ZM109.409 0.199601V11.8096H112.907V3.62606H121.214V0.199601H109.409Z" fill="#282068"/>
</svg>
