<svg width="300" height="70" viewBox="0 0 300 70" fill="none" xmlns="http://www.w3.org/2000/svg">
<g clip-path="url(#clip0_40_1045)">
<path d="M55.6141 10.8499V3.69021L51.9859 10.8499H50.578L47.0581 3.80036V10.8499H45.4336V0.110352H47.2206L51.3361 8.70201L55.6141 0.110352H57.2386V10.8499H55.6141Z" fill="#004C96"/>
<path d="M62.3277 0.110352H60.7031V10.7949H62.3277V0.110352Z" fill="#004C96"/>
<path d="M76.1901 0.110352V10.8499H74.8904L67.4175 2.86409V10.8499H65.793V0.110352H67.0926L74.6197 8.09619V0.110352H76.1901Z" fill="#004C96"/>
<path d="M81.2808 0.110352H79.6562V10.7949H81.2808V0.110352Z" fill="#004C96"/>
<path d="M84.5861 8.31624C85.1988 8.97597 86.0263 9.38696 86.9146 9.47281C87.1316 9.49678 87.3511 9.47284 87.5581 9.40261C87.7651 9.33238 87.9548 9.21752 88.1142 9.06588C88.2736 8.91424 88.3989 8.7294 88.4816 8.52398C88.5643 8.31857 88.6024 8.09741 88.5933 7.87564C88.5933 6.05817 84.207 6.33355 84.207 3.02906C84.2141 2.62402 84.2995 2.22436 84.4585 1.85291C84.6174 1.48146 84.8467 1.14549 85.1334 0.864199C85.42 0.582908 85.7583 0.361802 86.129 0.213513C86.4997 0.0652236 86.8954 -0.00734492 87.2937 -4.75028e-05C88.0763 -0.0301027 88.844 0.223648 89.4597 0.715924V2.80876C89.2217 2.435 88.9028 2.12157 88.5274 1.89247C88.1519 1.66337 87.7299 1.52466 87.2937 1.48697C87.0996 1.47922 86.9061 1.51238 86.7253 1.58437C86.5444 1.65636 86.3802 1.76562 86.2429 1.90527C86.1056 2.04493 85.9981 2.21197 85.9273 2.39589C85.8566 2.57981 85.824 2.77663 85.8316 2.97399C85.8316 4.95668 90.272 4.62623 90.272 7.82057C90.272 9.85833 88.6475 11.0149 86.8605 11.0149C86.0295 11.0258 85.2223 10.7326 84.5861 10.1888V8.31624Z" fill="#004C96"/>
<path d="M91.0293 0.110352H99.4769V1.65244H96.0112V10.8499H94.4408V1.65244H91.0293V0.110352Z" fill="#004C96"/>
<path d="M106.029 10.8499H101.102V0.110352H106.029V1.65244H102.726V4.73663H105.055V6.22365H102.726V9.30783H106.029V10.8499Z" fill="#004C96"/>
<path d="M112.094 6.71932H110.632V10.7398H109.008V0.110352H111.228C113.665 0.110352 115.235 1.15677 115.235 3.46991C115.246 4.01708 115.11 4.55694 114.843 5.03211C114.576 5.50728 114.188 5.90001 113.719 6.16857L117.889 10.7949H115.614L112.094 6.71932ZM110.632 5.28738H111.228C112.636 5.28738 113.502 4.73663 113.502 3.41484C113.502 2.09304 112.636 1.65244 111.282 1.65244H110.632V5.28738Z" fill="#004C96"/>
<path d="M118.647 8.31624C119.259 8.97597 120.087 9.38696 120.975 9.47281C121.192 9.49678 121.412 9.47284 121.619 9.40261C121.826 9.33238 122.015 9.21752 122.175 9.06588C122.334 8.91424 122.459 8.7294 122.542 8.52398C122.625 8.31857 122.663 8.09741 122.654 7.87564C122.654 6.05817 118.268 6.33355 118.268 3.02906C118.275 2.62402 118.36 2.22436 118.519 1.85291C118.678 1.48146 118.907 1.14549 119.194 0.864199C119.481 0.582908 119.819 0.361802 120.19 0.213513C120.56 0.0652236 120.956 -0.00734492 121.354 -4.75028e-05C122.137 -0.0301027 122.905 0.223648 123.52 0.715924V2.80876C123.282 2.435 122.963 2.12157 122.588 1.89247C122.212 1.66337 121.79 1.52466 121.354 1.48697C121.16 1.47922 120.967 1.51238 120.786 1.58437C120.605 1.65636 120.441 1.76562 120.303 1.90527C120.166 2.04493 120.059 2.21197 119.988 2.39589C119.917 2.57981 119.885 2.77663 119.892 2.97399C119.892 4.95668 124.333 4.62623 124.333 7.82057C124.333 9.85833 122.654 11.0149 120.921 11.0149C120.09 11.0258 119.283 10.7326 118.647 10.1888V8.31624Z" fill="#004C96"/>
<path d="M124.982 0.110352H133.43V1.65244H130.019V10.8499H128.394V1.65244H124.982V0.110352Z" fill="#004C96"/>
<path d="M138.682 8.92231L141.823 0.110352H143.556L139.44 10.8499H137.761L133.971 0.110352H135.704L138.682 8.92231Z" fill="#004C96"/>
<path d="M150.109 0.0551758C153.195 0.0551758 155.415 2.09294 155.47 5.28728C155.507 6.03079 155.393 6.77413 155.137 7.47149C154.881 8.16886 154.487 8.80548 153.98 9.34211C153.472 9.87874 152.862 10.304 152.187 10.5917C151.512 10.8795 150.786 11.0235 150.054 11.015C149.342 11.039 148.632 10.912 147.971 10.6422C147.309 10.3725 146.709 9.96574 146.21 9.44789C145.711 8.93005 145.324 8.31238 145.072 7.63406C144.82 6.95575 144.71 6.23161 144.748 5.50758C144.748 3.30459 146.372 0.0551758 150.109 0.0551758V0.0551758ZM150.054 9.52803C152.437 9.47296 153.845 7.65549 153.845 5.39743C153.845 3.13936 152.329 1.59727 150.109 1.54219C147.888 1.48712 146.426 3.96548 146.426 5.50758C146.426 7.04967 147.401 9.47296 150.054 9.52803Z" fill="#004C96"/>
<path d="M45.2702 63.942C45.883 64.6017 46.7104 65.0127 47.5987 65.0985C47.8182 65.1218 48.04 65.0977 48.2497 65.0279C48.4594 64.9581 48.6523 64.8441 48.8158 64.6934C48.9793 64.5427 49.1097 64.3587 49.1986 64.1533C49.2875 63.9479 49.3328 63.7258 49.3316 63.5014C49.3316 61.6839 44.9453 61.9593 44.9453 58.6548C44.9452 58.2523 45.024 57.8539 45.1771 57.4827C45.3301 57.1116 45.5544 56.7752 45.8367 56.4932C46.119 56.2112 46.4538 55.9892 46.8214 55.8403C47.189 55.6913 47.5821 55.6184 47.9778 55.6257C48.7618 55.5856 49.5328 55.8405 50.1439 56.3417V58.4345C49.9114 58.0676 49.601 57.7584 49.2355 57.5296C48.87 57.3009 48.4587 57.1584 48.032 57.1127C47.8335 57.097 47.634 57.1242 47.4467 57.1926C47.2594 57.261 47.0884 57.369 46.9451 57.5095C46.8019 57.65 46.6895 57.8199 46.6155 58.0078C46.5415 58.1957 46.5075 58.3975 46.5157 58.5997C46.5157 60.5824 50.9561 60.252 50.9561 63.4463C50.9561 65.4841 49.3316 66.6406 47.5446 66.6406C46.7136 66.6515 45.9064 66.3583 45.2702 65.8145V63.942Z" fill="#004C96"/>
<path d="M59.1875 66.4754H53.6641V55.7358H55.2345V64.9333H59.1875V66.4754Z" fill="#004C96"/>
<path d="M65.4699 55.6807C68.5565 55.6807 70.7767 57.7184 70.8309 60.9128C70.8679 61.6563 70.7548 62.3996 70.4986 63.097C70.2424 63.7943 69.8484 64.431 69.3411 64.9676C68.8338 65.5042 68.2237 65.9295 67.5486 66.2172C66.8735 66.5049 66.1476 66.649 65.4157 66.6405C64.7032 66.6645 63.9936 66.5375 63.3318 66.2677C62.6701 65.9979 62.0708 65.5912 61.5718 65.0734C61.0728 64.5555 60.6851 63.9379 60.4332 63.2595C60.1814 62.5812 60.0709 61.8571 60.1088 61.1331C60.1088 58.9301 61.6792 55.6807 65.4699 55.6807ZM65.4157 65.1535C67.7984 65.0984 69.2063 63.281 69.1522 61.0229C69.098 58.7648 67.6901 57.2228 65.4699 57.1677C64.9698 57.1746 64.4761 57.2835 64.0182 57.488C63.5603 57.6925 63.1474 57.9884 62.804 58.3582C62.4606 58.728 62.1937 59.1642 62.0191 59.6408C61.8445 60.1174 61.7658 60.6249 61.7875 61.1331C61.7334 63.0056 62.7081 65.0984 65.4157 65.1535Z" fill="#004C96"/>
<path d="M76.4617 64.5478L79.6025 55.7358H81.3354L77.274 66.4754H75.5953L71.8047 55.7358H73.4834L76.4617 64.5478Z" fill="#004C96"/>
<path d="M88.1588 66.4754H83.2852V55.7358H88.1588V57.2779H84.9097V60.3621H87.2382V61.8491H84.9097V64.9333H88.1588V66.4754Z" fill="#004C96"/>
<path d="M101.426 55.7358V66.4754H100.127L92.6538 58.4896V66.4754H91.0293V55.7358H92.3289L99.856 63.7217V55.7358H101.426Z" fill="#004C96"/>
<path d="M104.458 63.9419C105.084 64.6137 105.933 65.0257 106.84 65.0985C107.057 65.1224 107.277 65.0985 107.484 65.0283C107.691 64.958 107.881 64.8432 108.04 64.6915C108.199 64.5399 108.325 64.3551 108.407 64.1496C108.49 63.9442 108.528 63.7231 108.519 63.5013C108.519 61.6838 104.133 61.9592 104.133 58.6547C104.133 58.2475 104.213 57.8444 104.369 57.4695C104.526 57.0946 104.755 56.7557 105.043 56.4729C105.331 56.1901 105.672 55.9694 106.046 55.8238C106.42 55.6782 106.819 55.6108 107.219 55.6256C107.987 55.5833 108.742 55.8392 109.331 56.3416V58.4344C109.105 58.0619 108.796 57.7484 108.429 57.5189C108.063 57.2894 107.648 57.1503 107.219 57.1126C107.023 57.0959 106.826 57.1229 106.641 57.1917C106.456 57.2605 106.288 57.3695 106.149 57.5111C106.01 57.6527 105.903 57.8234 105.835 58.0114C105.767 58.1994 105.741 58.4001 105.757 58.5996C105.757 60.5823 110.144 60.2519 110.144 63.4462C110.144 65.484 108.519 66.6406 106.786 66.6406C105.941 66.6411 105.12 66.3499 104.458 65.8144V63.9419Z" fill="#004C96"/>
<path d="M114.422 55.7358V61.023L119.025 55.7358H121.191L116.317 61.1332L121.137 66.4754H118.971L114.422 61.3535V66.4754H112.852V55.7358H114.422Z" fill="#004C96"/>
<path d="M128.124 66.4754H123.25V55.7358H128.124V57.2779H124.82V60.3621H127.203V61.8491H124.82V64.9333H128.124V66.4754Z" fill="#004C96"/>
<path d="M129.965 68.7886C130.412 68.3675 130.769 67.8562 131.011 67.2872C131.254 66.7183 131.377 66.1042 131.373 65.4841V55.7358H132.997V65.4841C133.009 66.3402 132.836 67.1886 132.49 67.969C132.144 68.7495 131.633 69.4429 130.994 70.0002L129.965 68.7886Z" fill="#004C96"/>
<path d="M144.044 62.3448H142.582V66.3653H141.012V55.7358H143.178C145.615 55.7358 147.185 56.7272 147.185 59.0954C147.207 59.6381 147.082 60.1766 146.824 60.6523C146.567 61.1281 146.186 61.5229 145.723 61.7941L149.838 66.4203H147.618L144.044 62.3448ZM142.582 60.9129H143.232C144.586 60.9129 145.452 60.3621 145.452 59.0403C145.452 57.7185 144.64 57.2779 143.232 57.2779H142.582V60.9129Z" fill="#004C96"/>
<path d="M155.741 66.4754H150.867V55.7358H155.741V57.2779H152.438V60.3621H154.82V61.8491H152.438V64.9333H155.741V66.4754Z" fill="#004C96"/>
<path d="M160.072 62.3999V66.4203H158.502V55.7358H160.668C163.105 55.7358 164.675 56.7272 164.675 59.0954C164.675 61.4636 162.888 62.3999 160.614 62.3999H160.072ZM160.072 60.9129H160.722C162.076 60.9129 162.942 60.3621 162.942 59.0403C162.942 57.7185 162.13 57.2779 160.722 57.2779H160.072V60.9129Z" fill="#004C96"/>
<path d="M168.141 55.7358V60.8578C168.141 63.0608 169.115 65.1536 171.552 65.1536C173.989 65.1536 174.91 63.5565 174.91 60.8578V55.7358H176.534V60.8578C176.534 64.3275 174.476 66.6406 171.552 66.6406C168.628 66.6406 166.57 64.2174 166.57 60.8578V55.7358H168.141Z" fill="#004C96"/>
<path d="M179.457 66.4203V55.7358H180.973C183.356 55.7358 185.143 56.5069 185.143 58.6548C185.143 59.7012 184.547 60.307 183.573 60.6375C185.089 60.9129 186.118 61.739 186.118 63.3362C186.118 65.9247 183.627 66.4203 181.461 66.4203H179.457ZM181.515 60.1418C182.76 60.1418 183.464 59.7563 183.464 58.765C183.464 57.7736 182.327 57.2779 181.298 57.2779H181.082V60.1418H181.515ZM181.731 61.6839H181.082V64.9333H181.677C183.356 64.9333 184.439 64.713 184.439 63.3362C184.439 61.9593 183.302 61.6839 181.731 61.6839Z" fill="#004C96"/>
<path d="M194.297 66.4754H188.773V55.7358H190.398V64.9333H194.297V66.4754Z" fill="#004C96"/>
<path d="M197.761 55.7358H196.137V66.4203H197.761V55.7358Z" fill="#004C96"/>
<path d="M202.961 55.7358V61.023L207.564 55.7358H209.676L204.802 61.1332L209.676 66.4754H207.51L202.961 61.3535V66.4754H201.391V55.7358H202.961Z" fill="#004C96"/>
<path d="M215.307 66.4754H213.682V62.1796L210.217 55.7358H212.058L214.603 60.5824L216.986 55.7358H218.827L215.307 62.2347V66.4754Z" fill="#004C96"/>
<path d="M81.8776 15.6411H45.4336V17.2713H81.8776V15.6411Z" fill="#D4D5D5"/>
<path d="M118.321 15.6411H81.877V17.2713H118.321V15.6411Z" fill="#004C96"/>
<path d="M154.764 15.6411H118.32V17.2713H154.764V15.6411Z" fill="#E50B14"/>
<path d="M17.491 44.5557C10.2888 41.0309 0 34.0364 0 20.2126C0 6.38887 0.649819 0.110352 0.649819 0.110352H34.278C34.278 0.110352 34.9278 6.38887 34.9278 20.2126C34.9278 34.0364 24.639 41.0309 17.491 44.5557Z" fill="#E50B14"/>
<path d="M19.0083 16.5777C20.9578 16.6328 24.7484 16.6879 28.16 15.5313C28.16 15.5313 28.0517 16.798 28.0517 18.2299C28.0517 19.6619 28.16 20.8735 28.16 20.8735C25.0192 19.8271 21.2286 19.8271 19.0083 19.8271V27.4825H15.9217V19.8271C13.7556 19.8271 9.91086 19.8271 6.82422 20.8735C6.82422 20.8735 6.87837 19.6619 6.87837 18.2299C6.87837 16.798 6.82422 15.5313 6.82422 15.5313C10.1816 16.6879 13.9722 16.6328 15.9217 16.5777V11.7862C13.4819 11.7491 11.0515 12.1022 8.71953 12.8326C8.71953 12.8326 8.82783 11.621 8.82783 10.189C8.82783 8.75709 8.71953 7.54544 8.71953 7.54544C11.0507 8.2795 13.4817 8.63269 15.9217 8.59186C15.7728 6.27485 15.4469 3.97313 14.947 1.70752L17.4921 1.87274L19.9831 1.70752C19.4831 3.97313 19.1572 6.27485 19.0083 8.59186C21.4484 8.63269 23.8793 8.2795 26.2105 7.54544C26.2105 7.54544 26.1563 8.75709 26.1563 10.189C26.1563 11.621 26.2105 12.8326 26.2105 12.8326C23.8793 12.0986 21.4484 11.7454 19.0083 11.7862V16.5777Z" fill="white"/>
<path fill-rule="evenodd" clip-rule="evenodd" d="M27.0749 29.3549C26.2439 29.3374 25.4243 29.5545 24.7073 29.9824C23.9903 30.4102 23.404 31.0318 23.0136 31.7782C23.0136 31.7782 21.0641 26.6562 17.4901 26.6562C13.9161 26.6562 11.9125 31.7782 11.9125 31.7782C11.5311 31.0362 10.9544 30.4166 10.2467 29.9887C9.53911 29.5607 8.72844 29.3413 7.90528 29.3549C5.90167 29.3549 4.38542 31.1173 3.46484 32.8246C7.093 38.7176 12.8872 42.3526 17.4901 44.5555C22.0388 42.3526 27.8331 38.7176 31.4612 32.8246C30.5407 31.1173 29.0786 29.3549 27.0749 29.3549Z" fill="#004C96"/>
<path d="M46.5157 24.0679V34.7524H44.9453V24.0679H46.5157Z" fill="#004C96"/>
<path d="M59.0788 24.0679V34.7524H57.7791L50.252 26.8216V34.7524H48.6816V24.0679H49.9813L57.4542 32.0537V24.0679H59.0788Z" fill="#004C96"/>
<path d="M64.9266 32.8798L68.0674 24.0679H69.8002L65.7388 34.7524H64.0601L60.2695 24.0679H62.0024L64.9266 32.8798Z" fill="#004C96"/>
<path d="M75.8653 34.7524H70.9375V24.0679H75.8653V25.61H72.5621V28.6391H74.8906V30.1812H72.5621V33.2654H75.8653V34.7524Z" fill="#004C96"/>
<path d="M77.3283 32.2738C77.9247 32.9558 78.7613 33.3713 79.6568 33.4304C79.8738 33.4544 80.0933 33.4304 80.3003 33.3602C80.5073 33.29 80.697 33.1751 80.8564 33.0235C81.0158 32.8718 81.1411 32.687 81.2238 32.4816C81.3065 32.2761 81.3446 32.055 81.3355 31.8332C81.3355 30.0158 76.9492 30.2911 76.9492 26.9866C76.9563 26.5816 77.0417 26.1819 77.2006 25.8105C77.3596 25.439 77.5889 25.1031 77.8756 24.8218C78.1622 24.5405 78.5005 24.3194 78.8712 24.1711C79.2418 24.0228 79.6376 23.9502 80.0359 23.9575C80.8147 23.9535 81.5742 24.2046 82.2019 24.6735V26.7663C81.9639 26.3926 81.645 26.0792 81.2696 25.85C80.8941 25.6209 80.4721 25.4822 80.0359 25.4445C79.8418 25.4368 79.6483 25.47 79.4674 25.5419C79.2866 25.6139 79.1224 25.7232 78.9851 25.8629C78.8477 26.0025 78.7403 26.1695 78.6695 26.3535C78.5988 26.5374 78.5661 26.7342 78.5738 26.9316C78.5738 28.9143 83.0142 28.5838 83.0142 31.7781C83.0142 33.7608 81.3355 34.9725 79.6026 34.9725C78.7717 34.9833 77.9645 34.6902 77.3283 34.1464V32.2738Z" fill="#004C96"/>
<path d="M83.5547 24.0679H91.9482V25.61H88.5366V34.7524H86.9662V25.61H83.5547V24.0679Z" fill="#004C96"/>
<path d="M93.6809 23.6271L92.8145 22.7459L94.7639 20.7632L95.6303 21.6995L93.6809 23.6271ZM94.6556 24.0677V34.7522H93.0311V24.0677H94.6556Z" fill="#004C96"/>
<path d="M96.2824 29.4652C96.2678 28.7425 96.3961 28.0242 96.6597 27.353C96.9233 26.6817 97.3168 26.0711 97.8168 25.5575C98.3168 25.0438 98.9132 24.6375 99.5705 24.3627C100.228 24.0879 100.933 23.9502 101.643 23.9577C102.821 23.9177 103.979 24.2654 104.947 24.949V26.8766C104.531 26.4088 104.02 26.0384 103.45 25.7911C102.88 25.5439 102.263 25.4257 101.643 25.4447C98.9358 25.4447 97.9069 27.9231 97.9069 29.4652C97.9069 31.0073 98.9358 33.4305 101.643 33.4305C102.857 33.4747 104.04 33.0406 104.947 32.2189V33.9262C103.992 34.637 102.824 34.9875 101.643 34.9176C97.8528 34.9176 96.2824 31.8884 96.2824 29.5202V29.4652Z" fill="#004C96"/>
<path d="M108.195 24.0679V34.7524H106.57V24.0679H108.195Z" fill="#004C96"/>
<path d="M110.956 23.6271L110.09 22.7459L112.039 20.7632L112.906 21.6995L110.956 23.6271ZM111.931 24.0677V34.7522H110.306V24.0677H111.931Z" fill="#004C96"/>
<path d="M115.884 33.1001C115.884 34.3117 115.668 35.5785 114.91 36.2394H113.285C113.969 35.3451 114.314 34.2314 114.26 33.1001H115.884Z" fill="#004C96"/>
<path d="M123.14 30.6768H121.678V34.7524H120.107V24.0679H122.273C124.71 24.0679 126.281 25.1143 126.281 27.4274C126.291 27.9746 126.156 28.5145 125.889 28.9896C125.622 29.4648 125.233 29.8575 124.764 30.1261L128.934 34.7524H126.66L123.14 30.6768ZM121.678 29.2449H122.273C123.681 29.2449 124.548 28.6941 124.548 27.3724C124.548 26.0506 123.736 25.61 122.328 25.61H121.678V29.2449Z" fill="#004C96"/>
<path d="M134.296 34.7524H129.422V24.0679H134.296V25.61H130.992V28.6391H133.321V30.1812H130.992V33.2654H134.296V34.7524Z" fill="#004C96"/>
<path d="M135.434 29.4648C135.426 28.7348 135.563 28.0107 135.836 27.3355C136.109 26.6602 136.513 26.0476 137.023 25.534C137.533 25.0204 138.139 24.6161 138.806 24.3453C139.472 24.0744 140.186 23.9425 140.903 23.9573C142.01 23.9289 143.106 24.1746 144.098 24.6733V26.6009C143.209 25.8299 142.072 25.4183 140.903 25.4443C138.033 25.4443 137.058 27.9227 137.058 29.4648C137.058 31.0069 138.087 33.4301 140.795 33.4301C141.575 33.4435 142.349 33.2935 143.069 32.9895V29.8503H144.64V33.7606C143.51 34.5486 142.164 34.9534 140.795 34.9172C137.004 34.9172 135.434 31.888 135.434 29.5198V29.4648Z" fill="#004C96"/>
<path d="M148.106 24.0679V34.7524H146.535V24.0679H148.106Z" fill="#004C96"/>
<path d="M155.09 24.0127C158.176 24.0678 160.396 26.0505 160.451 29.2448C160.488 29.9883 160.374 30.7316 160.118 31.429C159.862 32.1264 159.468 32.763 158.961 33.2996C158.453 33.8363 157.843 34.2615 157.168 34.5493C156.493 34.837 155.767 34.981 155.035 34.9726C151.299 34.9175 149.729 31.9985 149.729 29.4651C149.729 26.9317 151.353 24.0127 155.09 24.0127ZM155.035 33.4855C157.418 33.4305 158.826 31.613 158.826 29.3549C158.826 27.0969 157.31 25.5548 155.09 25.5548C152.869 25.5548 151.407 27.923 151.407 29.4651C151.407 31.0072 152.382 33.4305 155.035 33.4855Z" fill="#004C96"/>
<path d="M172.471 24.0679V34.7524H171.172L163.699 26.8216V34.7524H162.074V24.0679H163.374L170.901 32.0537V24.0679H172.471Z" fill="#004C96"/>
<path d="M179.242 24.0677L183.141 34.7522H181.408L180.162 31.1172H176.642L175.397 34.7522H173.664L177.725 24.0677H179.242ZM177.184 29.6302H179.675L178.429 26.0504L177.184 29.6302ZM178.104 23.6271L177.238 22.7459L179.188 20.7632L180.108 21.6995L178.104 23.6271Z" fill="#004C96"/>
<path d="M189.91 34.7524H184.332V24.0679H185.957V33.2654H189.91V34.7524Z" fill="#004C96"/>
<path d="M201.606 24.0679V34.7524H200.306L192.779 26.8216V34.7524H191.209V24.0679H192.509L199.982 32.0537V24.0679H201.606Z" fill="#004C96"/>
<path d="M208.592 34.7524H203.664V24.0679H208.592V25.61H205.289V28.6391H207.617V30.1812H205.289V33.2654H208.592V34.7524Z" fill="#004C96"/>
<path d="M217.146 24.0679H218.717V34.7524H217.146V30.1812H211.785V34.7524H210.215V24.0679H211.785V28.6942H217.146V24.0679Z" fill="#004C96"/>
<path d="M225.705 24.0127C228.791 24.0678 231.012 26.0505 231.066 29.2448C231.103 29.9883 230.99 30.7316 230.733 31.429C230.477 32.1264 230.083 32.763 229.576 33.2996C229.069 33.8363 228.459 34.2615 227.784 34.5493C227.108 34.837 226.383 34.981 225.651 34.9726C221.914 34.9175 220.344 31.9985 220.344 29.4651C220.344 26.9317 221.968 24.0127 225.705 24.0127ZM225.651 33.4855C228.033 33.4305 229.441 31.613 229.441 29.3549C229.441 27.0969 227.925 25.5548 225.705 25.5548C223.485 25.5548 222.022 27.923 222.022 29.4651C222.022 31.0072 222.997 33.4305 225.651 33.4855Z" fill="#004C96"/>
<path d="M239.782 30.6768H238.32V34.7524H236.695V24.0679H238.916C241.298 24.0679 242.923 25.1143 242.923 27.4274C242.933 27.9746 242.798 28.5145 242.531 28.9896C242.264 29.4648 241.875 29.8575 241.406 30.1261L245.576 34.7524H243.302L239.782 30.6768ZM238.32 29.2449H238.916C240.323 29.2449 241.19 28.6941 241.19 27.3724C241.19 26.0506 240.323 25.61 238.97 25.61H238.32V29.2449Z" fill="#004C96"/>
<path d="M250.939 24.0127C254.025 24.0678 256.245 26.0505 256.3 29.2448C256.337 29.9883 256.224 30.7316 255.967 31.429C255.711 32.1264 255.317 32.763 254.81 33.2996C254.303 33.8363 253.692 34.2615 253.017 34.5493C252.342 34.837 251.616 34.981 250.884 34.9726C250.172 34.9965 249.462 34.8695 248.801 34.5998C248.139 34.33 247.539 33.9233 247.041 33.4054C246.542 32.8876 246.154 32.2699 245.902 31.5916C245.65 30.9133 245.54 30.1891 245.578 29.4651C245.578 27.2621 247.202 24.0127 250.939 24.0127ZM250.884 33.4856C253.213 33.4305 254.675 31.613 254.621 29.3549C254.567 27.0969 253.159 25.5548 250.939 25.5548C248.718 25.5548 247.256 27.923 247.256 29.4651C247.256 31.0072 248.177 33.4305 250.884 33.4856Z" fill="#004C96"/>
<path d="M257.383 24.0679H264.206V25.2795L259.386 33.2654H264.206V34.7524H257.383V33.5407L262.148 25.61H257.383V24.0679Z" fill="#004C96"/>
<path d="M269.567 32.8798L272.708 24.0679H274.441L270.379 34.7524H268.701L264.91 24.0679H266.643L269.567 32.8798Z" fill="#004C96"/>
<path d="M280.507 24.0124C283.593 24.0675 285.76 26.0502 285.868 29.2445C285.905 29.9927 285.791 30.7407 285.531 31.4419C285.272 32.143 284.873 32.7823 284.36 33.3197C283.846 33.8572 283.23 34.2813 282.548 34.5656C281.867 34.8499 281.135 34.9884 280.399 34.9723C276.716 34.9172 275.092 31.9982 275.146 29.4648C275.131 28.7447 275.26 28.0289 275.524 27.3606C275.788 26.6923 276.182 26.0853 276.683 25.5759C277.184 25.0666 277.781 24.6655 278.438 24.3969C279.095 24.1282 279.799 23.9974 280.507 24.0124ZM280.453 33.4852C282.781 33.4302 284.243 31.6127 284.189 29.3546C284.135 27.0966 282.727 25.5545 280.507 25.5545C278.287 25.5545 276.77 27.9227 276.77 29.4648C276.77 31.0069 277.745 33.4302 280.453 33.4852Z" fill="#004C96"/>
<path d="M286.301 37.1206C286.748 36.6996 287.105 36.1882 287.347 35.6193C287.59 35.0503 287.713 34.4362 287.709 33.8161V24.0679H289.333V33.761C289.365 34.6281 289.201 35.491 288.854 36.2835C288.507 37.076 287.985 37.7769 287.33 38.3322L286.301 37.1206Z" fill="#004C96"/>
<path d="M296.101 24.0679L300 34.7524H298.267L297.022 31.1174H293.502L292.256 34.7524H290.523L294.531 24.0679H296.101ZM293.989 29.6304H296.48L295.289 26.0506L293.989 29.6304Z" fill="#004C96"/>
<path d="M50.1435 39.874L54.0424 50.6136H52.3096L51.0641 46.9787H47.4901L46.2446 50.6136H44.5117L48.5731 39.874H50.1435ZM48.0316 45.4366H50.5226L49.2771 41.8567L48.0316 45.4366Z" fill="#004C96"/>
<path d="M60.8667 39.874V50.6136H59.2422V39.874H60.8667Z" fill="#004C96"/>
<path d="M73.4825 39.874V50.6136H72.1829L64.6016 42.6278V50.6136H63.0312V39.874H64.3309L71.858 47.8599V39.874H73.4825Z" fill="#004C96"/>
<path d="M75.541 50.6136V39.874H80.4688V41.4161H77.1656V44.5003H79.4941V46.0424H77.1656V50.6136H75.541Z" fill="#004C96"/>
<path d="M86.4248 39.8193C89.5656 39.8193 91.7317 41.8571 91.84 45.0514C91.8773 45.7996 91.7627 46.5477 91.5032 47.2488C91.2437 47.95 90.8449 48.5892 90.3317 49.1267C89.8185 49.6641 89.202 50.0882 88.5204 50.3725C87.8389 50.6569 87.1071 50.7953 86.3707 50.7792C82.6342 50.7792 81.0097 47.8602 81.0638 45.2717C81.118 42.6832 82.6884 39.8193 86.4248 39.8193ZM86.3707 49.2922C86.8921 49.2935 87.4082 49.1855 87.8866 48.9747C88.3651 48.764 88.7957 48.4551 89.1515 48.0675C89.5073 47.6798 89.7806 47.2216 89.9543 46.7216C90.1281 46.2216 90.1985 45.6905 90.1613 45.1616C90.1071 42.7934 88.6992 41.3614 86.4248 41.3064C84.1505 41.2513 82.7425 43.7296 82.7425 45.2717C82.7425 46.8138 83.7172 49.2922 86.3707 49.2922Z" fill="#004C96"/>
<path d="M96.5515 46.483L95.6309 46.5931H95.0352V50.6136H93.4648V39.874H95.6851C98.0677 39.874 99.6923 40.8654 99.6923 43.2336C99.7028 43.7808 99.5674 44.3206 99.3004 44.7958C99.0335 45.271 98.6449 45.6637 98.176 45.9322L102.346 50.6136H100.071L96.5515 46.483ZM95.0352 45.051H95.6851C97.093 45.051 97.9594 44.5003 97.9594 43.1785C97.9594 41.8567 97.093 41.4161 95.7392 41.4161H95.0352V45.051Z" fill="#004C96"/>
<path d="M113.067 50.6136V43.4539L109.439 50.6136H108.031L104.511 43.564V50.6136H102.887V39.874H104.62L108.789 48.4657L113.067 39.874H114.692V50.6136H113.067Z" fill="#004C96"/>
<path d="M121.515 39.874L125.414 50.6136H123.681L122.435 46.9787H118.915L117.616 50.6136H115.883L119.944 39.874H121.515ZM119.403 45.4366H121.894L120.702 41.8567L119.403 45.4366Z" fill="#004C96"/>
<path d="M125.523 39.874H134.025V41.4161H130.614V50.6136H128.989V41.4161H125.523V39.874Z" fill="#004C96"/>
<path d="M136.732 39.874V50.6136H135.107V39.874H136.732Z" fill="#004C96"/>
<path d="M138.357 39.874H145.18V41.0857L140.306 49.0715H145.18V50.6136H138.303V49.402L143.122 41.4161H138.357V39.874Z" fill="#004C96"/>
<path d="M151.46 39.8742L155.359 50.6138H153.627L152.381 46.9789H148.861L147.616 50.6138H145.883L149.89 39.8742H151.46ZM149.403 45.4368H151.894L150.648 41.8569L149.403 45.4368ZM150.323 39.3785L149.457 38.5524L151.406 36.5146L152.273 37.506L150.323 39.3785Z" fill="#004C96"/>
<path d="M156.064 45.2717C156.064 43.0687 157.689 39.7642 161.425 39.7642C162.624 39.6859 163.812 40.0366 164.783 40.7555V42.6831C164.359 42.211 163.839 41.8383 163.259 41.5911C162.679 41.3438 162.054 41.2278 161.425 41.2512C158.718 41.2512 157.743 43.7296 157.743 45.2717C157.743 46.8137 158.718 49.2921 161.425 49.2921C162.664 49.3299 163.868 48.8755 164.783 48.0254V49.7327C163.83 50.4937 162.634 50.8667 161.425 50.7791C157.689 50.7791 156.064 47.75 156.064 45.3267V45.2717Z" fill="#004C96"/>
<path d="M168.031 39.874V50.6136H166.406V39.874H168.031Z" fill="#004C96"/>
<path d="M175.018 50.6136H170.09V39.874H175.018V41.4161H171.714V44.5003H174.043V45.9873H171.714V49.0715H175.018V50.6136Z" fill="#004C96"/>
</g>
<defs>
<clipPath id="clip0_40_1045">
<rect width="300" height="70" fill="white"/>
</clipPath>
</defs>
</svg>
