<svg width="215" height="50" viewBox="0 0 215 50" fill="none" xmlns="http://www.w3.org/2000/svg">
<g clip-path="url(#clip0_579_3768)">
<path d="M39.8566 7.74974V2.63565L37.2564 7.74974H36.2474L33.7248 2.71433V7.74974H32.5605V0.0786133H33.8412L36.7907 6.21551L39.8566 0.0786133H41.0208V7.74974H39.8566Z" fill="#004C96"/>
<path d="M44.6682 0.0786133H43.5039V7.7104H44.6682V0.0786133Z" fill="#004C96"/>
<path d="M54.6036 0.0786133V7.74974H53.6722L48.3166 2.04557V7.74974H47.1523V0.0786133H48.0838L53.4782 5.78278V0.0786133H54.6036Z" fill="#004C96"/>
<path d="M58.2522 0.0786133H57.0879V7.7104H58.2522V0.0786133Z" fill="#004C96"/>
<path d="M60.6193 5.93996C61.0585 6.4112 61.6515 6.70476 62.2881 6.76608C62.4436 6.78321 62.6009 6.7661 62.7493 6.71594C62.8976 6.66577 63.0336 6.58373 63.1478 6.47542C63.262 6.36711 63.3518 6.23508 63.4111 6.08835C63.4703 5.94162 63.4977 5.78366 63.4912 5.62525C63.4912 4.32706 60.3477 4.52375 60.3477 2.16341C60.3527 1.87409 60.4139 1.58862 60.5278 1.3233C60.6418 1.05797 60.8061 0.817998 61.0115 0.617076C61.217 0.416153 61.4594 0.258221 61.7251 0.1523C61.9907 0.046379 62.2743 -0.00545564 62.5597 -0.000243194C63.1206 -0.0217112 63.6708 0.159539 64.1121 0.511165V2.00605C63.9415 1.73908 63.713 1.5152 63.4439 1.35155C63.1748 1.18791 62.8724 1.08883 62.5597 1.06191C62.4207 1.05638 62.282 1.08007 62.1524 1.13148C62.0228 1.1829 61.9051 1.26095 61.8067 1.3607C61.7083 1.46046 61.6313 1.57977 61.5805 1.71114C61.5298 1.84251 61.5065 1.9831 61.5119 2.12407C61.5119 3.54028 64.6942 3.30424 64.6942 5.58591C64.6942 7.04146 63.53 7.86758 62.2493 7.86758C61.6537 7.87534 61.0753 7.66592 60.6193 7.27749V5.93996Z" fill="#004C96"/>
<path d="M65.2383 0.0786133H71.2924V1.18011H68.8087V7.74974H67.6832V1.18011H65.2383V0.0786133Z" fill="#004C96"/>
<path d="M75.9886 7.74974H72.457V0.0786133H75.9886V1.18011H73.6213V3.3831H75.2901V4.44525H73.6213V6.64824H75.9886V7.74974Z" fill="#004C96"/>
<path d="M80.3332 4.79931H79.2854V7.67106H78.1211V0.0786133H79.7122C81.4586 0.0786133 82.5841 0.826056 82.5841 2.4783C82.5917 2.86914 82.4946 3.25475 82.3033 3.59416C82.1119 3.93356 81.8335 4.21409 81.4975 4.40591L84.4857 7.7104H82.8558L80.3332 4.79931ZM79.2854 3.77649H79.7122C80.7213 3.77649 81.3422 3.3831 81.3422 2.43896C81.3422 1.49482 80.7213 1.18011 79.7511 1.18011H79.2854V3.77649Z" fill="#004C96"/>
<path d="M85.0295 5.93996C85.4686 6.4112 86.0616 6.70476 86.6983 6.76608C86.8537 6.78321 87.0111 6.7661 87.1594 6.71594C87.3078 6.66577 87.4437 6.58373 87.558 6.47542C87.6722 6.36711 87.762 6.23508 87.8213 6.08835C87.8805 5.94162 87.9078 5.78366 87.9013 5.62525C87.9013 4.32706 84.7578 4.52375 84.7578 2.16341C84.7629 1.87409 84.8241 1.58862 84.938 1.3233C85.0519 1.05797 85.2163 0.817998 85.4217 0.617076C85.6271 0.416153 85.8696 0.258221 86.1352 0.1523C86.4009 0.046379 86.6845 -0.00545564 86.9699 -0.000243194C87.5308 -0.0217112 88.081 0.159539 88.5223 0.511165V2.00605C88.3517 1.73908 88.1231 1.5152 87.8541 1.35155C87.585 1.18791 87.2826 1.08883 86.9699 1.06191C86.8309 1.05638 86.6922 1.08007 86.5626 1.13148C86.433 1.1829 86.3152 1.26095 86.2168 1.3607C86.1184 1.46046 86.0414 1.57977 85.9907 1.71114C85.94 1.84251 85.9166 1.9831 85.9221 2.12407C85.9221 3.54028 89.1044 3.30424 89.1044 5.58591C89.1044 7.04146 87.9013 7.86758 86.6594 7.86758C86.0639 7.87534 85.4854 7.66592 85.0295 7.27749V5.93996Z" fill="#004C96"/>
<path d="M89.5703 0.0786133H95.6245V1.18011H93.1795V7.74974H92.0153V1.18011H89.5703V0.0786133Z" fill="#004C96"/>
<path d="M99.3881 6.37287L101.639 0.0786133H102.881L99.9314 7.74974H98.7283L96.0117 0.0786133H97.2536L99.3881 6.37287Z" fill="#004C96"/>
<path d="M107.578 0.0395508C109.79 0.0395508 111.381 1.4951 111.42 3.77677C111.446 4.30784 111.365 4.8388 111.182 5.33692C110.998 5.83504 110.716 6.28977 110.352 6.67307C109.989 7.05638 109.551 7.36016 109.068 7.56567C108.584 7.77118 108.063 7.87408 107.539 7.86803C107.028 7.88512 106.52 7.79444 106.046 7.60174C105.571 7.40904 105.142 7.11853 104.784 6.74864C104.427 6.37875 104.149 5.93755 103.968 5.45304C103.788 4.96853 103.709 4.45129 103.736 3.93412C103.736 2.36056 104.9 0.0395508 107.578 0.0395508V0.0395508ZM107.539 6.80588C109.247 6.76654 110.256 5.46835 110.256 3.85544C110.256 2.24254 109.169 1.14105 107.578 1.10171C105.987 1.06237 104.939 2.83263 104.939 3.93412C104.939 5.03562 105.637 6.76654 107.539 6.80588Z" fill="#004C96"/>
<path d="M32.4438 45.6726C32.8829 46.1439 33.4759 46.4374 34.1126 46.4987C34.2698 46.5153 34.4288 46.4981 34.5791 46.4483C34.7294 46.3984 34.8676 46.317 34.9848 46.2094C35.1019 46.1017 35.1954 45.9703 35.2591 45.8236C35.3228 45.6769 35.3553 45.5182 35.3544 45.3579C35.3544 44.0597 32.2109 44.2564 32.2109 41.8961C32.2109 41.6086 32.2674 41.324 32.377 41.0589C32.4867 40.7938 32.6474 40.5535 32.8498 40.3521C33.0521 40.1506 33.292 39.9921 33.5555 39.8857C33.8189 39.7793 34.1007 39.7272 34.3842 39.7324C34.9461 39.7038 35.4987 39.8858 35.9366 40.2438V41.7387C35.77 41.4766 35.5475 41.2558 35.2856 41.0924C35.0236 40.929 34.7289 40.8272 34.423 40.7946C34.2808 40.7833 34.1379 40.8028 34.0036 40.8516C33.8693 40.9005 33.7468 40.9777 33.6441 41.078C33.5415 41.1784 33.4609 41.2997 33.4079 41.4339C33.3548 41.5682 33.3305 41.7123 33.3364 41.8567C33.3364 43.2729 36.5187 43.0369 36.5187 45.3186C36.5187 46.7741 35.3544 47.6002 34.0738 47.6002C33.4782 47.608 32.8997 47.3986 32.4438 47.0102V45.6726Z" fill="#004C96"/>
<path d="M42.4175 47.4822H38.459V39.811H39.5844V46.3807H42.4175V47.4822Z" fill="#004C96"/>
<path d="M46.9195 39.772C49.1316 39.772 50.7228 41.2275 50.7616 43.5092C50.7881 44.0403 50.7071 44.5712 50.5235 45.0693C50.3398 45.5675 50.0575 46.0222 49.6939 46.4055C49.3303 46.7888 48.8932 47.0926 48.4093 47.2981C47.9255 47.5036 47.4053 47.6065 46.8807 47.6005C46.3701 47.6175 45.8615 47.5269 45.3873 47.3342C44.9131 47.1415 44.4835 46.8509 44.1259 46.4811C43.7683 46.1112 43.4904 45.67 43.31 45.1855C43.1295 44.701 43.0503 44.1837 43.0775 43.6665C43.0775 42.093 44.2029 39.772 46.9195 39.772ZM46.8807 46.5383C48.5883 46.499 49.5973 45.2008 49.5585 43.5879C49.5197 41.975 48.5107 40.8735 46.9195 40.8341C46.5611 40.839 46.2074 40.9169 45.8792 41.0629C45.551 41.209 45.2551 41.4204 45.009 41.6845C44.7629 41.9486 44.5716 42.2602 44.4465 42.6006C44.3214 42.9411 44.2649 43.3036 44.2805 43.6665C44.2417 45.0041 44.9403 46.499 46.8807 46.5383Z" fill="#004C96"/>
<path d="M54.7985 46.1053L57.0494 39.811H58.2913L55.3806 47.4822H54.1775L51.4609 39.811H52.664L54.7985 46.1053Z" fill="#004C96"/>
<path d="M63.1803 47.4822H59.6875V39.811H63.1803V40.9125H60.8518V43.1155H62.5205V44.1777H60.8518V46.3807H63.1803V47.4822Z" fill="#004C96"/>
<path d="M72.6895 39.811V47.4822H71.7581L66.4025 41.778V47.4822H65.2383V39.811H66.1697L71.5641 45.5152V39.811H72.6895Z" fill="#004C96"/>
<path d="M74.8618 45.6729C75.3106 46.1528 75.919 46.4471 76.5693 46.499C76.7248 46.5162 76.8821 46.4991 77.0305 46.4489C77.1789 46.3987 77.3148 46.3167 77.4291 46.2084C77.5433 46.1001 77.6331 45.968 77.6923 45.8213C77.7516 45.6746 77.7789 45.5166 77.7724 45.3582C77.7724 44.06 74.6289 44.2567 74.6289 41.8964C74.6287 41.6055 74.6864 41.3176 74.7985 41.0498C74.9106 40.782 75.0748 40.5399 75.2813 40.3379C75.4878 40.136 75.7323 39.9783 76.0003 39.8743C76.2683 39.7703 76.5542 39.7221 76.841 39.7327C77.3912 39.7025 77.9322 39.8853 78.3545 40.2441V41.739C78.1923 41.4729 77.971 41.249 77.7082 41.0851C77.4454 40.9211 77.1484 40.8218 76.841 40.7949C76.7004 40.7829 76.559 40.8022 76.4265 40.8514C76.294 40.9005 76.1737 40.9784 76.0739 41.0795C75.9742 41.1806 75.8974 41.3026 75.8489 41.4368C75.8004 41.5711 75.7814 41.7145 75.7932 41.857C75.7932 43.2732 78.9367 43.0372 78.9367 45.3189C78.9367 46.7744 77.7724 47.6005 76.5305 47.6005C75.9244 47.601 75.3361 47.3929 74.8618 47.0105V45.6729Z" fill="#004C96"/>
<path d="M82.0024 39.811V43.5876L85.3012 39.811H86.8535L83.3607 43.6663L86.8147 47.4822H85.2623L82.0024 43.8236V47.4822H80.877V39.811H82.0024Z" fill="#004C96"/>
<path d="M91.8209 47.4822H88.3281V39.811H91.8209V40.9125H89.4536V43.1155H91.1612V44.1777H89.4536V46.3807H91.8209V47.4822Z" fill="#004C96"/>
<path d="M93.1406 49.1344C93.4614 48.8337 93.7168 48.4684 93.8906 48.062C94.0643 47.6556 94.1525 47.217 94.1496 46.7741V39.811H95.3139V46.7741C95.3226 47.3856 95.1984 47.9916 94.9503 48.549C94.7021 49.1065 94.3361 49.6018 93.878 49.9999L93.1406 49.1344Z" fill="#004C96"/>
<path d="M103.232 44.5317H102.184V47.4035H101.059V39.811H102.611C104.357 39.811 105.483 40.5191 105.483 42.2107C105.498 42.5984 105.409 42.983 105.224 43.3228C105.04 43.6626 104.767 43.9447 104.435 44.1383L107.384 47.4428H105.793L103.232 44.5317ZM102.184 43.5089H102.65C103.62 43.5089 104.241 43.1155 104.241 42.1714C104.241 41.2272 103.659 40.9125 102.65 40.9125H102.184V43.5089Z" fill="#004C96"/>
<path d="M111.614 47.4822H108.121V39.811H111.614V40.9125H109.247V43.1155H110.954V44.1777H109.247V46.3807H111.614V47.4822Z" fill="#004C96"/>
<path d="M114.719 44.5711V47.4428H113.594V39.811H115.146C116.892 39.811 118.018 40.5191 118.018 42.2107C118.018 43.9023 116.737 44.5711 115.107 44.5711H114.719ZM114.719 43.5089H115.185C116.155 43.5089 116.776 43.1155 116.776 42.1714C116.776 41.2272 116.194 40.9125 115.185 40.9125H114.719V43.5089Z" fill="#004C96"/>
<path d="M120.5 39.811V43.4696C120.5 45.0431 121.199 46.538 122.945 46.538C124.692 46.538 125.352 45.3972 125.352 43.4696V39.811H126.516V43.4696C126.516 45.9479 125.041 47.6002 122.945 47.6002C120.85 47.6002 119.375 45.8693 119.375 43.4696V39.811H120.5Z" fill="#004C96"/>
<path d="M128.613 47.4428V39.811H129.7C131.408 39.811 132.688 40.3618 132.688 41.896C132.688 42.6435 132.261 43.0762 131.563 43.3122C132.649 43.5089 133.387 44.099 133.387 45.2398C133.387 47.0888 131.602 47.4428 130.049 47.4428H128.613ZM130.088 42.9582C130.981 42.9582 131.485 42.6828 131.485 41.9747C131.485 41.2666 130.67 40.9125 129.933 40.9125H129.778V42.9582H130.088ZM130.243 44.0597H129.778V46.3807H130.204C131.408 46.3807 132.184 46.2233 132.184 45.2398C132.184 44.2564 131.369 44.0597 130.243 44.0597Z" fill="#004C96"/>
<path d="M139.246 47.4822H135.287V39.811H136.451V46.3807H139.246V47.4822Z" fill="#004C96"/>
<path d="M141.731 39.811H140.566V47.4428H141.731V39.811Z" fill="#004C96"/>
<path d="M145.454 39.811V43.5876L148.752 39.811H150.266L146.773 43.6663L150.266 47.4822H148.714L145.454 43.8236V47.4822H144.328V39.811H145.454Z" fill="#004C96"/>
<path d="M154.304 47.4822H153.14V44.4137L150.656 39.811H151.976L153.8 43.2729L155.507 39.811H156.827L154.304 44.453V47.4822Z" fill="#004C96"/>
<path d="M58.6788 11.1724H32.5605V12.3368H58.6788V11.1724Z" fill="#D4D5D5"/>
<path d="M84.796 11.1724H58.6777V12.3368H84.796V11.1724Z" fill="#004C96"/>
<path d="M110.915 11.1724H84.7969V12.3368H110.915V11.1724Z" fill="#E50B14"/>
<path d="M12.5352 31.8253C7.37365 29.3076 0 24.3115 0 14.4374C0 4.56327 0.465704 0.0786133 0.465704 0.0786133H24.5659C24.5659 0.0786133 25.0316 4.56327 25.0316 14.4374C25.0316 24.3115 17.6579 29.3076 12.5352 31.8253Z" fill="#E50B14"/>
<path d="M13.6226 11.8413C15.0197 11.8806 17.7363 11.92 20.1812 11.0938C20.1812 11.0938 20.1036 11.9986 20.1036 13.0215C20.1036 14.0443 20.1812 14.9097 20.1812 14.9097C17.9303 14.1623 15.2137 14.1623 13.6226 14.1623V19.6304H11.4105V14.1623C9.85813 14.1623 7.10272 14.1623 4.89062 14.9097C4.89062 14.9097 4.92943 14.0443 4.92943 13.0215C4.92943 11.9986 4.89062 11.0938 4.89062 11.0938C7.29676 11.92 10.0134 11.8806 11.4105 11.8413V8.41878C9.66196 8.39225 7.92018 8.64448 6.24893 9.16623C6.24893 9.16623 6.32655 8.30077 6.32655 7.27795C6.32655 6.25513 6.24893 5.38967 6.24893 5.38967C7.91961 5.914 9.66179 6.16628 11.4105 6.13712C11.3038 4.4821 11.0702 2.83802 10.7119 1.21973L12.5359 1.33774L14.3211 1.21973C13.9628 2.83802 13.7293 4.4821 13.6226 6.13712C15.3713 6.16628 17.1134 5.914 18.7841 5.38967C18.7841 5.38967 18.7453 6.25513 18.7453 7.27795C18.7453 8.30077 18.7841 9.16623 18.7841 9.16623C17.1134 8.6419 15.3713 8.38962 13.6226 8.41878V11.8413Z" fill="white"/>
<path fill-rule="evenodd" clip-rule="evenodd" d="M19.4049 20.9677C18.8093 20.9551 18.222 21.1103 17.7081 21.4158C17.1943 21.7214 16.7741 22.1654 16.4943 22.6986C16.4943 22.6986 15.0972 19.04 12.5358 19.04C9.97445 19.04 8.53853 22.6986 8.53853 22.6986C8.26518 22.1686 7.85186 21.726 7.34473 21.4203C6.8376 21.1147 6.25662 20.9579 5.66669 20.9677C4.23076 20.9677 3.14412 22.2265 2.48438 23.446C5.08456 27.6553 9.23708 30.2517 12.5358 31.8253C15.7957 30.2517 19.9483 27.6553 22.5485 23.446C21.8887 22.2265 20.8409 20.9677 19.4049 20.9677Z" fill="#004C96"/>
<path d="M33.3364 17.1914V24.8232H32.2109V17.1914H33.3364Z" fill="#004C96"/>
<path d="M42.3399 17.1914V24.8232H41.4085L36.0141 19.1584V24.8232H34.8887V17.1914H35.8201L41.1757 22.8956V17.1914H42.3399Z" fill="#004C96"/>
<path d="M46.5309 23.4857L48.7818 17.1914H50.0237L47.113 24.8232H45.91L43.1934 17.1914H44.4352L46.5309 23.4857Z" fill="#004C96"/>
<path d="M54.3714 24.8232H50.8398V17.1914H54.3714V18.2929H52.0041V20.4566H53.6729V21.558H52.0041V23.761H54.3714V24.8232Z" fill="#004C96"/>
<path d="M55.4181 23.0529C55.8456 23.54 56.4451 23.8368 57.0869 23.879C57.2424 23.8961 57.3997 23.879 57.5481 23.8288C57.6965 23.7787 57.8324 23.6966 57.9466 23.5883C58.0608 23.48 58.1507 23.348 58.2099 23.2013C58.2692 23.0545 58.2965 22.8966 58.29 22.7382C58.29 21.44 55.1465 21.6367 55.1465 19.2763C55.1515 18.987 55.2128 18.7015 55.3267 18.4362C55.4406 18.1709 55.6049 17.9309 55.8104 17.73C56.0158 17.5291 56.2582 17.3711 56.5239 17.2652C56.7895 17.1593 57.0732 17.1074 57.3586 17.1127C57.9168 17.1098 58.461 17.2891 58.9109 17.6241V19.119C58.7404 18.852 58.5118 18.6281 58.2427 18.4645C57.9737 18.3008 57.6712 18.2017 57.3586 18.1748C57.2195 18.1693 57.0808 18.193 56.9512 18.2444C56.8216 18.2958 56.7039 18.3738 56.6055 18.4736C56.5071 18.5734 56.4301 18.6927 56.3794 18.824C56.3286 18.9554 56.3053 19.096 56.3107 19.237C56.3107 20.6532 59.493 20.4171 59.493 22.6988C59.493 24.115 58.29 24.9805 57.0481 24.9805C56.4526 24.9882 55.8741 24.7788 55.4181 24.3904V23.0529Z" fill="#004C96"/>
<path d="M59.8828 17.1914H65.8982V18.2929H63.4532V24.8232H62.3278V18.2929H59.8828V17.1914Z" fill="#004C96"/>
<path d="M67.1385 16.8767L66.5176 16.2473L67.9147 14.8311L68.5356 15.4998L67.1385 16.8767ZM67.8371 17.1914V24.8232H66.6728V17.1914H67.8371Z" fill="#004C96"/>
<path d="M69.0008 21.0465C68.9904 20.5303 69.0823 20.0172 69.2712 19.5378C69.4601 19.0583 69.7421 18.6222 70.1005 18.2553C70.4588 17.8884 70.8862 17.5981 71.3573 17.4019C71.8284 17.2056 72.3336 17.1072 72.8429 17.1126C73.6866 17.084 74.5169 17.3324 75.2102 17.8207V19.1975C74.9123 18.8633 74.5463 18.5988 74.1375 18.4222C73.7288 18.2456 73.287 18.1611 72.8429 18.1747C70.9024 18.1747 70.1651 19.945 70.1651 21.0465C70.1651 22.148 70.9024 23.8789 72.8429 23.8789C73.7125 23.9104 74.5606 23.6004 75.2102 23.0134V24.2329C74.5262 24.7406 73.6892 24.991 72.8429 24.941C70.1262 24.941 69.0008 22.7774 69.0008 21.0858V21.0465Z" fill="#004C96"/>
<path d="M77.5393 17.1914V24.8232H76.375V17.1914H77.5393Z" fill="#004C96"/>
<path d="M79.5194 16.8767L78.8984 16.2473L80.2956 14.8311L80.9165 15.4998L79.5194 16.8767ZM80.2179 17.1914V24.8232H79.0537V17.1914H80.2179Z" fill="#004C96"/>
<path d="M83.0503 23.6431C83.0503 24.5085 82.8951 25.4133 82.3518 25.8854H81.1875C81.6774 25.2467 81.9252 24.4511 81.8861 23.6431H83.0503Z" fill="#004C96"/>
<path d="M88.2514 21.9121H87.2036V24.8232H86.0781V17.1914H87.6305C89.3769 17.1914 90.5023 17.9389 90.5023 19.5911C90.5099 19.9819 90.4128 20.3675 90.2215 20.707C90.0302 21.0464 89.7517 21.3269 89.4157 21.5187L92.4039 24.8232H90.774L88.2514 21.9121ZM87.2036 20.8893H87.6305C88.6395 20.8893 89.2604 20.4959 89.2604 19.5518C89.2604 18.6076 88.6783 18.2929 87.6693 18.2929H87.2036V20.8893Z" fill="#004C96"/>
<path d="M96.2467 24.8232H92.7539V17.1914H96.2467V18.2929H93.8794V20.4566H95.5481V21.558H93.8794V23.761H96.2467V24.8232Z" fill="#004C96"/>
<path d="M97.0588 21.0468C97.0535 20.5254 97.1515 20.0082 97.3471 19.5259C97.5427 19.0436 97.8319 18.606 98.1975 18.2391C98.563 17.8722 98.9975 17.5835 99.4753 17.39C99.953 17.1966 100.464 17.1023 100.978 17.1129C101.771 17.0926 102.557 17.2681 103.268 17.6243V19.0012C102.631 18.4505 101.816 18.1565 100.978 18.1751C98.9216 18.1751 98.2231 19.9453 98.2231 21.0468C98.2231 22.1483 98.9604 23.8792 100.901 23.8792C101.46 23.8888 102.015 23.7816 102.531 23.5645V21.3222H103.656V24.1153C102.847 24.6782 101.882 24.9673 100.901 24.9414C98.1842 24.9414 97.0588 22.7777 97.0588 21.0862V21.0468Z" fill="#004C96"/>
<path d="M106.141 17.1914V24.8232H105.016V17.1914H106.141Z" fill="#004C96"/>
<path d="M111.147 17.1519C113.359 17.1912 114.95 18.6074 114.989 20.8891C115.015 21.4201 114.934 21.9511 114.751 22.4492C114.567 22.9473 114.285 23.4021 113.921 23.7854C113.558 24.1687 113.12 24.4725 112.637 24.678C112.153 24.8835 111.632 24.9864 111.108 24.9803C108.43 24.941 107.305 22.856 107.305 21.0464C107.305 19.2368 108.469 17.1519 111.147 17.1519ZM111.108 23.9182C112.816 23.8788 113.825 22.5806 113.825 20.9677C113.825 19.3548 112.738 18.2533 111.147 18.2533C109.556 18.2533 108.508 19.9449 108.508 21.0464C108.508 22.1479 109.206 23.8788 111.108 23.9182Z" fill="#004C96"/>
<path d="M123.606 17.1914V24.8232H122.674L117.319 19.1584V24.8232H116.154V17.1914H117.086L122.48 22.8956V17.1914H123.606Z" fill="#004C96"/>
<path d="M128.456 17.1914L131.251 24.8232H130.009L129.116 22.2268H126.593L125.701 24.8232H124.459L127.37 17.1914H128.456ZM126.982 21.1647H128.767L127.874 18.6076L126.982 21.1647ZM127.641 16.8767L127.02 16.2473L128.417 14.8311L129.077 15.4998L127.641 16.8767Z" fill="#004C96"/>
<path d="M136.101 24.8232H132.104V17.1914H133.268V23.761H136.101V24.8232Z" fill="#004C96"/>
<path d="M144.484 17.1914V24.8232H143.553L138.159 19.1584V24.8232H137.033V17.1914H137.965L143.32 22.8956V17.1914H144.484Z" fill="#004C96"/>
<path d="M149.491 24.8232H145.959V17.1914H149.491V18.2929H147.123V20.4566H148.792V21.558H147.123V23.761H149.491V24.8232Z" fill="#004C96"/>
<path d="M155.624 17.1914H156.749V24.8232H155.624V21.558H151.782V24.8232H150.656V17.1914H151.782V20.4959H155.624V17.1914Z" fill="#004C96"/>
<path d="M161.754 17.1519C163.966 17.1912 165.557 18.6074 165.596 20.8891C165.623 21.4201 165.542 21.9511 165.358 22.4492C165.174 22.9473 164.892 23.4021 164.529 23.7854C164.165 24.1687 163.728 24.4725 163.244 24.678C162.76 24.8835 162.24 24.9864 161.715 24.9803C159.038 24.941 157.912 22.856 157.912 21.0464C157.912 19.2368 159.076 17.1519 161.754 17.1519ZM161.715 23.9182C163.423 23.8788 164.432 22.5806 164.432 20.9677C164.432 19.3548 163.345 18.2533 161.754 18.2533C160.163 18.2533 159.115 19.9449 159.115 21.0464C159.115 22.1479 159.814 23.8788 161.715 23.9182Z" fill="#004C96"/>
<path d="M171.845 21.9121H170.797V24.8232H169.633V17.1914H171.224C172.932 17.1914 174.096 17.9389 174.096 19.5911C174.103 19.9819 174.006 20.3675 173.815 20.707C173.624 21.0464 173.345 21.3269 173.009 21.5187L175.997 24.8232H174.367L171.845 21.9121ZM170.797 20.8893H171.224C172.233 20.8893 172.854 20.4959 172.854 19.5518C172.854 18.6076 172.233 18.2929 171.263 18.2929H170.797V20.8893Z" fill="#004C96"/>
<path d="M179.839 17.1519C182.052 17.1912 183.643 18.6074 183.682 20.8891C183.708 21.4201 183.627 21.9511 183.443 22.4492C183.26 22.9473 182.977 23.4021 182.614 23.7854C182.25 24.1687 181.813 24.4725 181.329 24.678C180.845 24.8835 180.325 24.9864 179.801 24.9803C179.29 24.9974 178.781 24.9067 178.307 24.714C177.833 24.5213 177.403 24.2308 177.046 23.8609C176.688 23.491 176.41 23.0499 176.23 22.5653C176.049 22.0808 175.97 21.5636 175.997 21.0464C175.997 19.4729 177.162 17.1519 179.839 17.1519ZM179.801 23.9182C181.469 23.8788 182.517 22.5807 182.478 20.9677C182.44 19.3548 181.431 18.2534 179.839 18.2534C178.248 18.2534 177.2 19.9449 177.2 21.0464C177.2 22.1479 177.86 23.8788 179.801 23.9182Z" fill="#004C96"/>
<path d="M184.457 17.1914H189.347V18.0569L185.893 23.761H189.347V24.8232H184.457V23.9577L187.872 18.2929H184.457V17.1914Z" fill="#004C96"/>
<path d="M193.189 23.4857L195.44 17.1914H196.682L193.771 24.8232H192.568L189.852 17.1914H191.093L193.189 23.4857Z" fill="#004C96"/>
<path d="M201.029 17.1522C203.241 17.1915 204.793 18.6077 204.871 20.8894C204.897 21.4239 204.815 21.9582 204.629 22.459C204.443 22.9598 204.157 23.4164 203.79 23.8003C203.422 24.1842 202.98 24.4871 202.492 24.6902C202.003 24.8933 201.479 24.9922 200.951 24.9807C198.312 24.9413 197.148 22.8564 197.186 21.0468C197.176 20.5324 197.268 20.0211 197.457 19.5438C197.647 19.0664 197.929 18.6328 198.288 18.269C198.647 17.9052 199.075 17.6187 199.546 17.4268C200.017 17.2349 200.521 17.1415 201.029 17.1522ZM200.99 23.9185C202.659 23.8792 203.706 22.581 203.668 20.9681C203.629 19.3552 202.62 18.2537 201.029 18.2537C199.437 18.2537 198.351 19.9453 198.351 21.0468C198.351 22.1483 199.049 23.8792 200.99 23.9185Z" fill="#004C96"/>
<path d="M205.182 26.5148C205.502 26.214 205.758 25.8488 205.932 25.4424C206.105 25.036 206.194 24.5973 206.191 24.1544V17.1914H207.355V24.1151C207.378 24.7344 207.26 25.3508 207.011 25.9169C206.762 26.4829 206.389 26.9835 205.919 27.3802L205.182 26.5148Z" fill="#004C96"/>
<path d="M212.204 17.1914L214.999 24.8232H213.757L212.864 22.2268H210.342L209.449 24.8232H208.207L211.079 17.1914H212.204ZM210.691 21.1647H212.476L211.622 18.6076L210.691 21.1647Z" fill="#004C96"/>
<path d="M35.9365 28.4819L38.7307 36.1531H37.4888L36.5962 33.5567H34.0349L33.1423 36.1531H31.9004L34.811 28.4819H35.9365ZM34.423 32.4552H36.2082L35.3156 29.8981L34.423 32.4552Z" fill="#004C96"/>
<path d="M43.6213 28.4819V36.1531H42.457V28.4819H43.6213Z" fill="#004C96"/>
<path d="M52.6619 28.4819V36.1531H51.7305L46.2973 30.4489V36.1531H45.1719V28.4819H46.1033L51.4977 34.1861V28.4819H52.6619Z" fill="#004C96"/>
<path d="M54.1367 36.1531V28.4819H57.6683V29.5834H55.301V31.7864H56.9698V32.8879H55.301V36.1531H54.1367Z" fill="#004C96"/>
<path d="M61.9387 28.4424C64.1896 28.4424 65.7419 29.8979 65.8196 32.1796C65.8463 32.714 65.7642 33.2483 65.5782 33.7492C65.3922 34.25 65.1064 34.7066 64.7387 35.0905C64.3709 35.4744 63.929 35.7773 63.4406 35.9804C62.9521 36.1835 62.4277 36.2824 61.8999 36.2709C59.2221 36.2709 58.0578 34.1859 58.0966 32.337C58.1354 30.488 59.2609 28.4424 61.9387 28.4424ZM61.8999 35.2087C62.2736 35.2097 62.6434 35.1325 62.9863 34.982C63.3293 34.8314 63.6378 34.6108 63.8928 34.3339C64.1478 34.057 64.3437 33.7297 64.4682 33.3726C64.5927 33.0154 64.6432 32.6361 64.6165 32.2583C64.5777 30.5667 63.5687 29.5439 61.9387 29.5045C60.3087 29.4652 59.2997 31.2355 59.2997 32.337C59.2997 33.4384 59.9983 35.2087 61.8999 35.2087Z" fill="#004C96"/>
<path d="M69.1965 33.2026L68.5367 33.2813H68.1098V36.1531H66.9844V28.4819H68.5755C70.2831 28.4819 71.4474 29.19 71.4474 30.8816C71.4549 31.2725 71.3579 31.6581 71.1665 31.9975C70.9752 32.3369 70.6967 32.6174 70.3607 32.8092L73.349 36.1531H71.719L69.1965 33.2026ZM68.1098 32.1798H68.5755C69.5846 32.1798 70.2055 31.7864 70.2055 30.8423C70.2055 29.8981 69.5846 29.5834 68.6143 29.5834H68.1098V32.1798Z" fill="#004C96"/>
<path d="M81.0324 36.1531V31.039L78.4322 36.1531H77.4232L74.9006 31.1177V36.1531H73.7363V28.4819H74.9782L77.9665 34.6188L81.0324 28.4819H82.1966V36.1531H81.0324Z" fill="#004C96"/>
<path d="M87.0869 28.4819L89.8811 36.1531H88.6392L87.7466 33.5567H85.2241L84.2927 36.1531H83.0508L85.9614 28.4819H87.0869ZM85.5733 32.4552H87.3585L86.5048 29.8981L85.5733 32.4552Z" fill="#004C96"/>
<path d="M89.957 28.4819H96.05V29.5834H93.605V36.1531H92.4408V29.5834H89.957V28.4819Z" fill="#004C96"/>
<path d="M97.9924 28.4819V36.1531H96.8281V28.4819H97.9924Z" fill="#004C96"/>
<path d="M99.156 28.4819H104.046V29.3474L100.553 35.0516H104.046V36.1531H99.1172V35.2876L102.571 29.5834H99.156V28.4819Z" fill="#004C96"/>
<path d="M108.548 28.4817L111.342 36.1528H110.1L109.208 33.5565H106.685L105.793 36.1528H104.551L107.423 28.4817H108.548ZM107.073 32.455H108.859L107.966 29.8979L107.073 32.455ZM107.733 28.1277L107.112 27.5376L108.509 26.082L109.13 26.7901L107.733 28.1277Z" fill="#004C96"/>
<path d="M111.848 32.3371C111.848 30.7635 113.012 28.4032 115.69 28.4032C116.549 28.3473 117.4 28.5978 118.096 29.1113V30.4882C117.792 30.1509 117.419 29.8847 117.004 29.7081C116.588 29.5315 116.14 29.4487 115.69 29.4654C113.749 29.4654 113.051 31.2356 113.051 32.3371C113.051 33.4386 113.749 35.2089 115.69 35.2089C116.577 35.2358 117.44 34.9113 118.096 34.3041V35.5236C117.413 36.0671 116.556 36.3336 115.69 36.271C113.012 36.271 111.848 34.1074 111.848 32.3764V32.3371Z" fill="#004C96"/>
<path d="M120.422 28.4819V36.1531H119.258V28.4819H120.422Z" fill="#004C96"/>
<path d="M125.43 36.1531H121.898V28.4819H125.43V29.5834H123.063V31.7864H124.731V32.8486H123.063V35.0516H125.43V36.1531Z" fill="#004C96"/>
</g>
<defs>
<clipPath id="clip0_579_3768">
<rect width="215" height="50" fill="white"/>
</clipPath>
</defs>
</svg>
