<svg width="221" height="55" viewBox="0 0 221 55" fill="none" xmlns="http://www.w3.org/2000/svg">
<path d="M81.1618 0H0V54.9945H81.1618V0Z" fill="white"/>
<path d="M79.6202 1.51025H1.56836V53.4266H79.6202V1.51025Z" fill="#034EA2"/>
<path d="M38.915 12.8232L40.5663 11.615L42.2176 12.8232L41.5846 10.8736L43.2634 9.69285H41.1993L40.5663 7.71582L39.9333 9.69285H37.8691L39.548 10.8736L38.915 12.8232Z" fill="#FFF100"/>
<path d="M30.4111 15.1025L32.0348 13.8943L33.6862 15.1025L33.0807 13.1529L34.732 11.9722H32.6678L32.0348 9.99512L31.4018 11.9722H29.3652L31.0165 13.1529L30.4111 15.1025Z" fill="#FFF100"/>
<path d="M25.8163 16.228L25.1833 18.2051H23.1191L24.798 19.4133L24.165 21.3354L25.8163 20.1546L27.4676 21.3354L26.8346 19.4133L28.5134 18.2051H26.4493L25.8163 16.228Z" fill="#FFF100"/>
<path d="M23.5311 28.6394L25.1824 29.8201L24.5494 27.898L26.2283 26.6898H24.1641L23.5311 24.7402L22.8981 26.6898H20.834L22.5128 27.898L21.8798 29.8201L23.5311 28.6394Z" fill="#FFF100"/>
<path d="M26.4493 35.202L25.8163 33.2524L25.1833 35.2295L23.1191 35.202L24.798 36.4102L24.165 38.3598L25.8163 37.1516L27.4676 38.3598L26.8346 36.4102L28.5134 35.202H26.4493Z" fill="#FFF100"/>
<path d="M32.6954 41.4354L32.0624 39.4858L31.4294 41.4629L29.3652 41.4354L31.0441 42.6436L30.4111 44.5932L32.0624 43.385L33.7137 44.5932L33.0807 42.6436L34.7595 41.4354H32.6954Z" fill="#FFF100"/>
<path d="M41.1993 43.7143L40.5663 41.7373L39.9333 43.7143H37.8691L39.548 44.8951L38.915 46.8446L40.5663 45.6365L42.2176 46.8446L41.5846 44.8951L43.2634 43.7143H41.1993Z" fill="#FFF100"/>
<path d="M49.705 41.4354L49.0995 39.4858L48.4665 41.4629L46.4023 41.4354L48.0537 42.6436L47.4482 44.5932L49.0995 43.385L50.7233 44.5932L50.1178 42.6436L51.7691 41.4354H49.705Z" fill="#FFF100"/>
<path d="M55.9786 35.202L55.3456 33.2524L54.7126 35.2295L52.6484 35.202L54.3273 36.4102L53.6943 38.3598L55.3456 37.1516L56.9694 38.3598L56.3639 36.4102L58.0152 35.202H55.9786Z" fill="#FFF100"/>
<path d="M60.3005 26.6625H58.2364L57.6034 24.7129L56.9704 26.6625H54.9062L56.5851 27.8707L55.9521 29.8202L57.6034 28.612L59.2547 29.8202L58.6217 27.8707L60.3005 26.6625Z" fill="#FFF100"/>
<path d="M53.6943 21.308L55.3456 20.1273L56.9694 21.308L56.3639 19.3859L58.0152 18.1777H55.9786L55.3456 16.2007L54.7126 18.1777H52.6484L54.3273 19.3859L53.6943 21.308Z" fill="#FFF100"/>
<path d="M49.0993 9.99512L48.4663 11.9722H46.4297L48.081 13.1803L47.4755 15.1025L49.0993 13.8943L50.7506 15.1025L50.1176 13.1803L51.7964 11.9722H49.7323L49.0993 9.99512Z" fill="#FFF100"/>
<path d="M89.8301 13.0979V1.51025H97.7839V3.45983H92.1694V6.20571H97.0133V8.15529H92.1694V13.0979H89.8301Z" fill="#034EA2"/>
<path d="M99.7109 3.54221V1.51025H101.94V3.54221H99.7109ZM99.7109 13.0979V4.69548H101.94V13.0979H99.7109Z" fill="#034EA2"/>
<path d="M111.876 13.0977H109.647V8.81417C109.647 7.90803 109.619 7.30394 109.509 7.05681C109.436 6.79595 109.27 6.57105 109.041 6.42525C108.811 6.27887 108.543 6.20253 108.27 6.20558C107.901 6.20831 107.539 6.31283 107.225 6.50763C106.933 6.71546 106.719 7.01531 106.619 7.35885C106.482 7.71582 106.427 8.34737 106.427 9.28097V13.0977H104.197V4.69535H106.289V5.931C106.595 5.48634 107.007 5.12359 107.487 4.87462C107.966 4.62565 108.5 4.49809 109.041 4.50314C109.506 4.49015 109.967 4.58411 110.39 4.77773C110.754 4.91119 111.077 5.13855 111.325 5.43674C111.537 5.71312 111.687 6.03142 111.766 6.37034C111.856 6.86848 111.892 7.3747 111.876 7.88057V13.0977Z" fill="#034EA2"/>
<path d="M115.81 7.2493L113.774 6.89233C113.956 6.1743 114.373 5.53697 114.957 5.08005C115.508 4.69563 116.333 4.50342 117.434 4.50342C118.425 4.50342 119.168 4.61325 119.663 4.86038C120.087 5.03841 120.444 5.34605 120.682 5.73906C120.874 6.12349 120.984 6.7825 120.984 7.74356V10.3247C120.965 10.8762 121.002 11.4281 121.094 11.9722C121.169 12.3638 121.298 12.7429 121.48 13.098H119.278C119.192 12.8828 119.118 12.6628 119.058 12.439C119.042 12.3443 119.014 12.2521 118.975 12.1644C118.635 12.5287 118.223 12.8186 117.764 13.0156C117.327 13.1911 116.86 13.2841 116.388 13.2902C115.633 13.3309 114.892 13.0746 114.324 12.5763C114.081 12.3479 113.889 12.0708 113.761 11.7632C113.633 11.4556 113.572 11.1244 113.581 10.7915C113.576 10.3485 113.69 9.91227 113.911 9.52838C114.15 9.16317 114.482 8.86905 114.875 8.67716C115.45 8.43796 116.05 8.26299 116.663 8.15544C117.394 8.03869 118.113 7.85485 118.81 7.60626V7.38659C118.822 7.22307 118.802 7.05873 118.75 6.90316C118.698 6.74759 118.616 6.60389 118.507 6.48045C118.287 6.28824 117.874 6.20586 117.296 6.20586C116.97 6.19392 116.647 6.2698 116.361 6.42553C116.099 6.63966 115.908 6.92637 115.81 7.2493ZM118.783 9.06158C118.34 9.19723 117.89 9.30725 117.434 9.39109C117.015 9.46434 116.608 9.59365 116.223 9.77551C116.088 9.85978 115.976 9.97718 115.899 10.1165C115.822 10.2559 115.782 10.4126 115.783 10.5718C115.779 10.7227 115.81 10.8725 115.872 11.0102C115.933 11.148 116.025 11.2702 116.141 11.3681C116.252 11.488 116.389 11.582 116.541 11.6436C116.693 11.7053 116.857 11.7331 117.021 11.7251C117.441 11.7172 117.847 11.5726 118.177 11.3132C118.421 11.1351 118.604 10.8856 118.7 10.5993C118.771 10.2377 118.798 9.869 118.783 9.50092V9.06158Z" fill="#034EA2"/>
<path d="M130.837 13.0978H128.608V8.81421C128.634 8.22501 128.588 7.63479 128.47 7.05685C128.387 6.80117 128.223 6.57945 128.002 6.4253C127.772 6.27891 127.504 6.20257 127.231 6.20563C126.861 6.20389 126.498 6.30876 126.186 6.50767C125.885 6.71257 125.662 7.01237 125.553 7.3589C125.415 7.98978 125.359 8.63588 125.387 9.28101V13.0978H123.158V4.69539H125.222V5.93104C125.535 5.48594 125.951 5.12337 126.435 4.87462C126.92 4.62586 127.457 4.49838 128.002 4.50318C128.466 4.49307 128.927 4.5869 129.351 4.77777C129.711 4.90404 130.027 5.13318 130.259 5.43678C130.471 5.71316 130.621 6.03146 130.699 6.37038C130.801 6.86721 130.847 7.37368 130.837 7.88061V13.0978Z" fill="#034EA2"/>
<path d="M140.443 7.16692L138.242 7.5788C138.191 7.2035 138.017 6.85566 137.746 6.59029C137.456 6.36472 137.096 6.24809 136.728 6.26078C136.474 6.24878 136.221 6.29445 135.987 6.39434C135.754 6.49422 135.546 6.64573 135.379 6.83742C135.049 7.22184 134.884 7.85339 134.884 8.73207C134.884 9.74805 135.049 10.4345 135.407 10.8464C135.565 11.0514 135.77 11.2157 136.004 11.3256C136.239 11.4355 136.496 11.4877 136.755 11.478C137.127 11.4879 137.49 11.3608 137.774 11.121C138.095 10.7818 138.297 10.3485 138.352 9.88534L140.553 10.2423C140.306 11.2583 139.893 11.9997 139.232 12.5214C138.481 13.0597 137.57 13.3304 136.645 13.2902C135.407 13.2902 134.444 12.9058 133.7 12.1095C132.957 11.3132 132.6 10.2698 132.6 8.89683C132.6 7.52389 132.957 6.42553 133.7 5.65669C134.444 4.88784 135.434 4.50342 136.673 4.50342C137.911 4.50342 138.517 4.72309 139.122 5.16243C139.769 5.67022 140.232 6.37365 140.443 7.16692Z" fill="#034EA2"/>
<path d="M141.599 8.78689C141.606 8.039 141.795 7.30396 142.15 6.64511C142.483 5.96579 143.022 5.40852 143.691 5.0525C144.387 4.68742 145.162 4.49881 145.948 4.50332C146.528 4.48405 147.105 4.58378 147.645 4.79633C148.185 5.00887 148.675 5.32971 149.085 5.73897C149.485 6.15439 149.799 6.64514 150.006 7.18259C150.214 7.72004 150.313 8.29342 150.296 8.86927C150.315 9.45181 150.214 10.032 150.001 10.5747C149.789 11.1175 149.468 11.6115 149.058 12.027C148.658 12.4446 148.174 12.773 147.638 12.9907C147.102 13.2084 146.526 13.3105 145.948 13.2901C145.184 13.2805 144.433 13.1023 143.746 12.7684C143.065 12.436 142.507 11.898 142.15 11.2307C141.766 10.4743 141.577 9.63446 141.599 8.78689ZM143.884 8.89673C143.884 9.72049 144.076 10.3795 144.489 10.8188C144.673 11.024 144.897 11.1882 145.149 11.3006C145.4 11.413 145.672 11.4712 145.948 11.4712C146.223 11.4712 146.496 11.413 146.747 11.3006C146.999 11.1882 147.223 11.024 147.407 10.8188C147.819 10.3795 148.012 9.72049 148.012 8.86927C148.012 8.01805 147.819 7.41395 147.407 6.97461C147.223 6.76944 146.999 6.60526 146.747 6.49284C146.496 6.38042 146.223 6.3223 145.948 6.3223C145.672 6.3223 145.4 6.38042 145.149 6.49284C144.897 6.60526 144.673 6.76944 144.489 6.97461C144.076 7.41395 143.884 8.07297 143.884 8.89673Z" fill="#034EA2"/>
<path d="M154.37 13.0977L150.957 4.69531H153.296L154.893 8.97889L155.361 10.4067L155.581 9.69282C155.651 9.45075 155.734 9.21246 155.828 8.97889L157.425 4.69531H159.709L156.351 13.0977H154.37Z" fill="#034EA2"/>
<path d="M162.736 7.2493L160.727 6.89233C160.888 6.17203 161.297 5.53081 161.883 5.08005C162.433 4.69563 163.259 4.50342 164.36 4.50342C165.351 4.50342 166.094 4.61325 166.589 4.86038C167.013 5.03841 167.37 5.34605 167.607 5.73906C167.8 6.12349 167.91 6.7825 167.91 7.74356V10.3247C167.891 10.8762 167.928 11.4281 168.02 11.9722C168.094 12.3638 168.224 12.7429 168.406 13.098H166.204C166.149 12.9607 166.094 12.7411 166.011 12.439C165.969 12.3524 165.941 12.2597 165.929 12.1644C165.574 12.5239 165.153 12.8128 164.69 13.0156C164.253 13.1936 163.786 13.2868 163.314 13.2902C162.56 13.3251 161.821 13.0695 161.25 12.5763C161.007 12.3479 160.815 12.0708 160.687 11.7632C160.559 11.4556 160.497 11.1244 160.507 10.7915C160.498 10.3443 160.622 9.90462 160.865 9.52838C161.085 9.15829 161.411 8.86198 161.8 8.67716C162.377 8.44195 162.976 8.26711 163.589 8.15544C164.321 8.04258 165.04 7.85865 165.736 7.60626V7.38659C165.755 7.22265 165.738 7.05649 165.686 6.8999C165.633 6.74331 165.547 6.60011 165.433 6.48045C165.213 6.28824 164.828 6.20586 164.222 6.20586C163.905 6.19334 163.59 6.26941 163.314 6.42553C163.044 6.63697 162.843 6.92367 162.736 7.2493ZM165.708 9.06158C165.267 9.20064 164.816 9.31071 164.36 9.39109C163.942 9.46882 163.535 9.59795 163.149 9.77551C163.014 9.85978 162.902 9.97718 162.825 10.1165C162.748 10.2559 162.708 10.4126 162.709 10.5718C162.705 10.7227 162.735 10.8725 162.797 11.0102C162.859 11.148 162.951 11.2702 163.066 11.3681C163.178 11.488 163.315 11.582 163.467 11.6436C163.619 11.7053 163.783 11.7331 163.947 11.7251C164.368 11.7213 164.775 11.5762 165.103 11.3132C165.354 11.1424 165.539 10.8902 165.626 10.5993C165.696 10.2377 165.724 9.869 165.708 9.50092V9.06158Z" fill="#034EA2"/>
<path d="M177.763 13.0978H175.533V8.81421C175.56 8.22501 175.514 7.63479 175.396 7.05685C175.313 6.80117 175.148 6.57945 174.928 6.4253C174.698 6.27891 174.43 6.20257 174.157 6.20563C173.787 6.20389 173.424 6.30876 173.111 6.50767C172.811 6.71257 172.588 7.01237 172.478 7.3589C172.34 7.98978 172.285 8.63588 172.313 9.28101V13.0978H170.084V4.69539H172.148V5.93104C172.462 5.48762 172.879 5.12632 173.363 4.87776C173.847 4.6292 174.384 4.50071 174.928 4.50318C175.392 4.49307 175.853 4.5869 176.276 4.77777C176.641 4.91123 176.964 5.13859 177.212 5.43678C177.416 5.71468 177.556 6.03315 177.625 6.37038C177.726 6.86721 177.773 7.37368 177.763 7.88061V13.0978Z" fill="#034EA2"/>
<path d="M184.89 10.4343L187.119 10.7913C186.881 11.5415 186.408 12.196 185.77 12.6585C185.079 13.091 184.275 13.3106 183.459 13.29C182 13.29 180.899 12.7958 180.211 11.8622C179.624 11.0067 179.326 9.98746 179.358 8.95154C179.358 7.5786 179.743 6.48024 180.459 5.68394C180.809 5.29823 181.239 4.99292 181.719 4.78907C182.199 4.58522 182.717 4.48769 183.238 4.50321C184.477 4.50321 185.468 4.91509 186.183 5.73886C186.899 6.56262 187.257 7.82573 187.229 9.52817H181.642C181.637 10.0897 181.832 10.6349 182.193 11.0659C182.353 11.2483 182.553 11.3923 182.777 11.4874C183.001 11.5824 183.243 11.626 183.486 11.615C183.802 11.6251 184.113 11.5284 184.367 11.3405C184.627 11.0962 184.808 10.7811 184.89 10.4343ZM185.027 8.18269C185.043 7.64562 184.867 7.12046 184.532 6.69991C184.383 6.54373 184.203 6.41939 184.005 6.33443C183.806 6.24946 183.592 6.20566 183.376 6.20566C183.148 6.19582 182.92 6.23764 182.711 6.32799C182.501 6.41834 182.314 6.55488 182.165 6.72737C181.828 7.13465 181.66 7.65567 181.697 8.18269H185.027ZM182.165 3.65199L183.266 1.29053H185.77L183.596 3.65199H182.165Z" fill="#034EA2"/>
<path d="M89.8027 32.5388V20.9512H98.4171V22.9007H92.1421V25.4819H98.0042V27.4315H92.1421V30.5892H98.6372V32.5388H89.8027Z" fill="#034EA2"/>
<path d="M106.178 32.5386V31.2755C105.856 31.7151 105.443 32.0804 104.967 32.3464C104.471 32.5926 103.925 32.724 103.371 32.7308C102.841 32.7345 102.32 32.6021 101.857 32.3464C101.416 32.1228 101.066 31.7543 100.866 31.303C100.644 30.7157 100.542 30.0904 100.563 29.4632V24.1362H102.793V28.0079C102.761 28.7338 102.807 29.461 102.93 30.1772C103.008 30.4282 103.162 30.649 103.371 30.8087C103.62 30.9581 103.906 31.0343 104.196 31.0284C104.558 31.0296 104.912 30.9245 105.215 30.7263C105.499 30.5399 105.72 30.2718 105.848 29.9575C105.958 29.628 106.013 28.8866 106.013 27.6784V24.1362H108.242V32.5386H106.178Z" fill="#034EA2"/>
<path d="M112.673 32.5387H110.443V24.1363H112.507V25.317C112.751 24.8895 113.078 24.5159 113.471 24.2187C113.756 24.0298 114.092 23.9339 114.434 23.9441C114.949 23.9481 115.452 24.0904 115.893 24.356L115.205 26.3056C114.901 26.0827 114.536 25.9581 114.159 25.9486C113.873 25.9426 113.593 26.0293 113.361 26.1957C113.108 26.4519 112.935 26.7765 112.865 27.1293C112.728 27.5687 112.673 28.5023 112.673 29.9301V32.5387Z" fill="#034EA2"/>
<path d="M116.334 28.2277C116.341 27.4798 116.53 26.7448 116.884 26.0859C117.228 25.4047 117.776 24.8477 118.453 24.4933C119.138 24.1261 119.905 23.9372 120.682 23.9441C121.262 23.9249 121.84 24.0246 122.38 24.2371C122.919 24.4497 123.409 24.7705 123.82 25.1798C124.601 26.0429 125.032 27.166 125.026 28.3291C125.021 29.4922 124.581 30.6115 123.792 31.4678C123.398 31.8847 122.919 32.2129 122.387 32.4307C121.856 32.6485 121.284 32.7509 120.71 32.731C119.937 32.7217 119.176 32.5436 118.481 32.2092C117.805 31.8694 117.248 31.3333 116.884 30.6715C116.5 29.9151 116.311 29.0753 116.334 28.2277ZM118.618 28.3375C118.587 29.0294 118.801 29.7102 119.224 30.2597C119.407 30.4648 119.632 30.629 119.883 30.7414C120.134 30.8538 120.407 30.912 120.682 30.912C120.958 30.912 121.23 30.8538 121.482 30.7414C121.733 30.629 121.958 30.4648 122.141 30.2597C122.554 29.7929 122.746 29.1613 122.746 28.3101C122.746 27.4589 122.554 26.8548 122.141 26.4154C121.958 26.2102 121.733 26.0461 121.482 25.9336C121.23 25.8212 120.958 25.7631 120.682 25.7631C120.407 25.7631 120.134 25.8212 119.883 25.9336C119.632 26.0461 119.407 26.2102 119.224 26.4154C118.797 26.9626 118.582 27.645 118.618 28.3375ZM119.554 23.0929L120.655 20.7314H123.159L120.985 23.0929H119.554Z" fill="#034EA2"/>
<path d="M126.709 24.1362H128.801V25.3719C129.08 24.9518 129.446 24.5961 129.874 24.3284C130.348 24.076 130.878 23.944 131.415 23.944C131.892 23.9392 132.364 24.0401 132.797 24.2395C133.231 24.439 133.614 24.732 133.92 25.0973C134.58 25.8661 134.938 26.9096 134.938 28.2825C134.938 29.6554 134.58 30.7813 133.892 31.5501C133.596 31.9213 133.219 32.2205 132.79 32.4251C132.361 32.6296 131.891 32.7342 131.415 32.7308C130.978 32.7307 130.547 32.637 130.149 32.4562C129.693 32.2078 129.283 31.8827 128.938 31.4952V35.7238H126.709V24.1362ZM128.911 28.2001C128.911 29.1337 129.103 29.8477 129.489 30.287C129.65 30.4994 129.858 30.6718 130.096 30.7909C130.335 30.9099 130.598 30.9724 130.865 30.9735C131.114 30.9705 131.359 30.9123 131.583 30.8031C131.807 30.6939 132.003 30.5363 132.158 30.3419C132.489 29.93 132.654 29.2436 132.654 28.31C132.654 27.3764 132.489 26.7723 132.131 26.3329C131.968 26.1371 131.764 25.9795 131.533 25.8714C131.303 25.7632 131.051 25.7071 130.796 25.7071C130.541 25.7071 130.289 25.7632 130.059 25.8714C129.828 25.9795 129.624 26.1371 129.461 26.3329C129.103 26.7448 128.911 27.3764 128.911 28.2001Z" fill="#034EA2"/>
<path d="M135.902 30.1495L138.159 29.7926C138.214 30.185 138.422 30.54 138.737 30.7811C139.093 31.0227 139.519 31.1387 139.948 31.1106C140.4 31.14 140.85 31.0349 141.242 30.8086C141.335 30.7375 141.411 30.6461 141.463 30.5414C141.515 30.4368 141.543 30.3215 141.544 30.2045C141.547 30.1281 141.534 30.0521 141.505 29.9811C141.477 29.9102 141.434 29.846 141.379 29.7926C141.155 29.6424 140.902 29.5396 140.636 29.4905C138.847 29.1061 137.691 28.7491 137.223 28.4196C136.91 28.2141 136.655 27.9322 136.482 27.6006C136.308 27.2691 136.222 26.8988 136.233 26.525C136.225 26.1737 136.298 25.8254 136.446 25.5066C136.594 25.1877 136.813 24.9068 137.086 24.6852C137.664 24.191 138.544 23.9438 139.755 23.9438C140.966 23.9438 141.765 24.1361 142.342 24.493C142.912 24.8996 143.321 25.4922 143.498 26.168L141.379 26.5524C141.315 26.2514 141.138 25.9862 140.884 25.811C140.566 25.6048 140.189 25.5084 139.81 25.5365C139.374 25.5031 138.936 25.5885 138.544 25.7836C138.467 25.8344 138.404 25.9037 138.361 25.9853C138.317 26.0669 138.295 26.1581 138.297 26.2504C138.303 26.3267 138.326 26.4006 138.364 26.4671C138.402 26.5335 138.454 26.5908 138.517 26.6348C138.71 26.7996 139.398 26.9918 140.609 27.2664C141.82 27.541 142.618 27.8705 143.086 28.2549C143.318 28.4591 143.501 28.7137 143.621 28.9992C143.74 29.2848 143.792 29.5937 143.774 29.9024C143.769 30.2864 143.681 30.6647 143.514 31.0109C143.348 31.3572 143.108 31.6629 142.81 31.9069C142.177 32.4561 141.214 32.7307 139.948 32.7307C138.682 32.7307 137.884 32.4835 137.223 32.0167C136.567 31.5788 136.096 30.9136 135.902 30.1495Z" fill="#034EA2"/>
<path d="M145.645 32.5388V20.9512H147.874V27.1019L150.488 24.1364H153.241L150.351 27.2118L153.433 32.5388H151.039L148.92 28.7495L147.874 29.8478V32.5388H145.645Z" fill="#034EA2"/>
<path d="M154.23 28.2278C154.237 27.4799 154.426 26.7449 154.781 26.086C155.124 25.4048 155.673 24.8479 156.35 24.4934C157.035 24.1262 157.801 23.9374 158.579 23.9442C159.159 23.925 159.736 24.0247 160.276 24.2372C160.816 24.4498 161.306 24.7706 161.716 25.1799C162.498 26.043 162.928 27.1661 162.923 28.3292C162.918 29.4923 162.478 30.6117 161.689 31.468C161.294 31.8848 160.815 32.213 160.284 32.4308C159.752 32.6486 159.181 32.751 158.606 32.7311C157.834 32.7218 157.073 32.5437 156.377 32.2093C155.701 31.8695 155.145 31.3334 154.781 30.6716C154.397 29.9152 154.208 29.0754 154.23 28.2278ZM156.515 28.3376C156.483 29.0295 156.698 29.7103 157.12 30.2598C157.299 30.4704 157.523 30.6388 157.775 30.7528C158.027 30.8667 158.302 30.9234 158.579 30.9188C158.859 30.9219 159.137 30.8646 159.394 30.7509C159.65 30.6371 159.879 30.4696 160.065 30.2598C160.45 29.793 160.643 29.1614 160.643 28.3102C160.643 27.459 160.45 26.8549 160.065 26.4155C159.879 26.2056 159.65 26.0382 159.394 25.9244C159.137 25.8107 158.859 25.7534 158.579 25.7565C158.302 25.7519 158.027 25.8086 157.775 25.9225C157.523 26.0365 157.299 26.2049 157.12 26.4155C156.693 26.9627 156.478 27.6451 156.515 28.3376Z" fill="#034EA2"/>
<path d="M170.221 32.5386V31.2755C169.906 31.7214 169.491 32.088 169.01 32.3464C168.524 32.596 167.987 32.7277 167.441 32.7308C166.903 32.7343 166.373 32.6021 165.9 32.3464C165.466 32.1215 165.126 31.7524 164.936 31.303C164.715 30.7157 164.612 30.0904 164.634 29.4632V24.1362H166.863V28.0079C166.863 29.1887 166.891 29.9026 166.973 30.1772C167.061 30.4302 167.224 30.6505 167.441 30.8087C167.687 30.9658 167.975 31.0426 168.267 31.0284C168.628 31.0249 168.981 30.9203 169.285 30.7263C169.561 30.5384 169.773 30.2699 169.89 29.9575C170.001 29.628 170.056 28.8866 170.056 27.6784V24.1362H172.285V32.5386H170.221Z" fill="#034EA2"/>
<path d="M184.643 32.5387V31.2756C184.335 31.728 183.919 32.0962 183.432 32.3465C182.946 32.5961 182.409 32.7278 181.863 32.7309C181.333 32.7371 180.811 32.6046 180.349 32.3465C179.902 32.1308 179.55 31.7597 179.358 31.3031C179.137 30.7158 179.034 30.0905 179.056 29.4633V24.1363H181.285V28.008C181.253 28.7339 181.3 29.4611 181.422 30.1773C181.5 30.4284 181.654 30.6491 181.863 30.8088C182.112 30.9582 182.398 31.0344 182.688 31.0285C183.05 31.0297 183.404 30.9246 183.707 30.7265C183.983 30.5385 184.195 30.27 184.312 29.9576C184.45 29.6281 184.505 28.8867 184.505 27.6785V24.1363H186.707V32.5387H184.643ZM181.753 23.0929L182.854 20.7314H185.358L183.184 23.0929H181.753Z" fill="#034EA2"/>
<path d="M196.698 32.5387H194.469V28.2551C194.469 27.349 194.414 26.7449 194.304 26.4978C194.23 26.245 194.075 26.0232 193.863 25.8662C193.632 25.724 193.365 25.648 193.093 25.6465C192.722 25.6448 192.359 25.7497 192.047 25.9486C191.746 26.1535 191.523 26.4533 191.414 26.7998C191.276 27.4307 191.22 28.0768 191.249 28.7219V32.5387H189.02V24.1363H191.084V25.372C191.396 24.9269 191.813 24.5643 192.297 24.3155C192.781 24.0668 193.319 23.9393 193.863 23.9441C194.328 23.934 194.789 24.0278 195.212 24.2187C195.573 24.345 195.889 24.5741 196.12 24.8777C196.332 25.1541 196.482 25.4724 196.561 25.8113C196.662 26.3081 196.708 26.8146 196.698 27.3215V32.5387Z" fill="#034EA2"/>
<path d="M198.955 22.9831V20.9512H201.184V22.9831H198.955ZM198.955 32.5388V24.1364H201.184V32.5388H198.955Z" fill="#034EA2"/>
<path d="M202.945 28.2277C202.952 27.4798 203.141 26.7447 203.496 26.0859C203.829 25.4065 204.368 24.8493 205.037 24.4932C205.723 24.1283 206.489 23.9395 207.266 23.9441C207.847 23.9198 208.426 24.0172 208.966 24.23C209.507 24.4429 209.996 24.7664 210.404 25.1797C210.814 25.5891 211.135 26.0782 211.348 26.6167C211.561 27.1551 211.661 27.7315 211.642 28.31C211.66 28.8926 211.56 29.4728 211.347 30.0155C211.134 30.5583 210.813 31.0523 210.404 31.4678C210.002 31.8826 209.518 32.2092 208.982 32.4267C208.447 32.6442 207.872 32.7478 207.294 32.7309C206.53 32.724 205.777 32.5457 205.092 32.2092C204.405 31.8849 203.845 31.3446 203.496 30.6715C203.112 29.9151 202.923 29.0752 202.945 28.2277ZM205.229 28.3375C205.188 29.0263 205.393 29.7075 205.807 30.2596C205.993 30.4695 206.222 30.637 206.479 30.7507C206.735 30.8644 207.013 30.9217 207.294 30.9186C207.57 30.9233 207.845 30.8666 208.097 30.7526C208.349 30.6387 208.573 30.4703 208.752 30.2596C209.138 29.7928 209.33 29.1613 209.33 28.31C209.33 27.4588 209.138 26.8547 208.752 26.4154C208.573 26.2047 208.349 26.0363 208.097 25.9224C207.845 25.8084 207.57 25.7517 207.294 25.7564C207.013 25.7533 206.735 25.8106 206.479 25.9243C206.222 26.038 205.993 26.2055 205.807 26.4154C205.422 26.8547 205.229 27.5137 205.229 28.3375Z" fill="#034EA2"/>
<path d="M218.908 32.5386V31.2755C218.601 31.7279 218.184 32.0961 217.697 32.3464C217.212 32.596 216.674 32.7277 216.128 32.7308C215.599 32.737 215.077 32.6045 214.615 32.3464C214.174 32.1229 213.824 31.7543 213.624 31.303C213.402 30.7157 213.299 30.0904 213.321 29.4632V24.1362H215.551V28.0079C215.519 28.7338 215.565 29.461 215.688 30.1772C215.766 30.4282 215.919 30.649 216.128 30.8087C216.377 30.9581 216.664 31.0343 216.954 31.0284C217.316 31.0296 217.67 30.9245 217.972 30.7263C218.257 30.5399 218.477 30.2718 218.605 29.9575C218.716 29.628 218.771 28.8866 218.771 27.6784V24.1362H221V32.5386H218.908Z" fill="#034EA2"/>
<path d="M89.3086 53.3799V43.3574H90.6847L95.9689 51.2381V43.3574H97.2349V53.3799H95.8588L90.6021 45.5267V53.3799H89.3086Z" fill="#58595B"/>
<path d="M104.281 51.0457L105.574 51.2104C105.411 51.9005 105.012 52.5122 104.446 52.9403C103.844 53.364 103.118 53.5764 102.382 53.5444C101.308 53.5444 100.455 53.2424 99.8498 52.5834C99.2443 51.9244 98.9141 51.0182 98.9141 49.8375C98.9141 48.6568 99.2168 47.6408 99.8498 46.9818C100.165 46.6612 100.541 46.406 100.956 46.231C101.37 46.0559 101.816 45.9645 102.266 45.962C102.716 45.9594 103.163 46.0458 103.579 46.2161C103.996 46.3864 104.375 46.6373 104.694 46.9543C105.299 47.6133 105.602 48.5469 105.602 49.7551V50.0846H100.18C100.171 50.749 100.406 51.3936 100.841 51.8969C101.181 52.259 101.639 52.4883 102.133 52.5436C102.628 52.599 103.126 52.4768 103.538 52.1989C103.892 51.8942 104.15 51.4936 104.281 51.0457ZM100.235 49.0686H104.308C104.29 48.5752 104.128 48.0979 103.84 47.6957C103.66 47.4692 103.429 47.2871 103.167 47.1633C102.904 47.0396 102.617 46.9774 102.327 46.9818C102.061 46.9743 101.797 47.0216 101.551 47.1209C101.305 47.2201 101.081 47.3691 100.896 47.5584C100.494 47.962 100.259 48.5007 100.235 49.0686Z" fill="#58595B"/>
<path d="M106.289 53.3795L108.959 49.6176L106.482 46.1304H108.023L109.151 47.8328C109.333 48.0973 109.498 48.3724 109.647 48.6566L110.225 47.8603L111.436 46.1304H112.922L110.39 49.5627L113.114 53.3795H111.601L110.087 51.1279L109.702 50.5238L107.803 53.3795H106.289Z" fill="#58595B"/>
<path d="M116.83 52.2815L116.996 53.3798C116.699 53.4536 116.394 53.4905 116.087 53.4896C115.726 53.5068 115.366 53.4311 115.042 53.27C114.809 53.1527 114.624 52.9586 114.519 52.7208C114.409 52.5011 114.354 52.0069 114.354 51.2655V47.0918H113.445V46.1307H114.354V44.3459L115.592 43.6045V46.1307H116.83V47.0918H115.592V51.3479C115.584 51.5689 115.603 51.7901 115.647 52.0069C115.69 52.112 115.768 52.1993 115.867 52.254C115.996 52.3133 116.138 52.3416 116.28 52.3364C116.465 52.3415 116.65 52.3231 116.83 52.2815Z" fill="#58595B"/>
<path d="M122.884 49.4531V48.2723H127.15V52.0067C126.548 52.498 125.87 52.8875 125.141 53.16C124.457 53.4285 123.729 53.5682 122.995 53.5719C122.058 53.5816 121.132 53.3649 120.297 52.9403C119.519 52.5253 118.885 51.8836 118.481 51.1006C118.056 50.2775 117.838 49.3631 117.848 48.4371C117.845 47.4855 118.062 46.546 118.481 45.6912C118.838 44.8873 119.46 44.2287 120.242 43.824C121.056 43.3965 121.965 43.1794 122.884 43.1925C123.562 43.1787 124.236 43.3 124.866 43.5494C125.404 43.7515 125.879 44.0927 126.242 44.5379C126.607 45.0303 126.869 45.5905 127.013 46.1855L125.802 46.4875C125.685 46.0663 125.499 45.6673 125.251 45.3068C124.991 44.9968 124.661 44.7522 124.288 44.5929C123.84 44.4215 123.364 44.3377 122.884 44.3457C122.348 44.3289 121.814 44.4223 121.316 44.6203C120.906 44.7691 120.538 45.014 120.242 45.3342C119.981 45.629 119.768 45.9625 119.609 46.3228C119.352 46.9694 119.222 47.6591 119.224 48.3547C119.205 49.1223 119.365 49.8838 119.692 50.5789C119.968 51.172 120.446 51.6486 121.04 51.9244C121.619 52.2208 122.262 52.3716 122.912 52.3637C123.488 52.363 124.058 52.2511 124.591 52.0342C125.047 51.8615 125.473 51.6208 125.857 51.3203V49.4531H122.884Z" fill="#58595B"/>
<path d="M133.949 51.0457L135.215 51.2104C135.052 51.9005 134.653 52.5122 134.087 52.9403C133.484 53.364 132.759 53.5764 132.022 53.5444C130.949 53.5444 130.096 53.2424 129.49 52.5834C128.885 51.9244 128.555 51.0182 128.555 49.8375C128.555 48.6568 128.857 47.6408 129.49 46.9818C129.806 46.6612 130.182 46.406 130.596 46.231C131.011 46.0559 131.456 45.9645 131.907 45.962C132.357 45.9594 132.803 46.0458 133.22 46.2161C133.636 46.3864 134.015 46.6373 134.334 46.9543C134.94 47.6133 135.242 48.5469 135.242 49.7551V50.0846H129.821C129.876 50.8809 130.096 51.485 130.509 51.8969C130.698 52.1103 130.931 52.28 131.192 52.3938C131.454 52.5077 131.737 52.563 132.022 52.5559C132.435 52.5548 132.837 52.4305 133.178 52.1989C133.533 51.8891 133.799 51.4912 133.949 51.0457ZM129.876 49.0686H133.949C133.931 48.5752 133.768 48.0979 133.481 47.6957C133.3 47.4692 133.07 47.2871 132.807 47.1633C132.545 47.0396 132.258 46.9774 131.967 46.9818C131.702 46.9743 131.438 47.0216 131.191 47.1209C130.945 47.2201 130.722 47.3691 130.536 47.5584C130.135 47.962 129.899 48.5007 129.876 49.0686Z" fill="#58595B"/>
<path d="M136.756 53.3797V46.1306H137.857V47.174C138.109 46.788 138.457 46.4738 138.867 46.262C139.277 46.0502 139.735 45.9482 140.196 45.9658C140.613 45.9626 141.025 46.0468 141.407 46.213C141.732 46.3351 142.018 46.5441 142.233 46.817C142.41 47.096 142.54 47.4022 142.618 47.7232C142.658 48.1246 142.677 48.5279 142.673 48.9314V53.3797H141.435V48.9863C141.448 48.6062 141.401 48.2263 141.297 47.8605C141.194 47.6069 141.011 47.3945 140.774 47.2564C140.515 47.1061 140.22 47.0301 139.921 47.0367C139.425 47.0274 138.944 47.2037 138.572 47.531C138.187 47.8605 137.994 48.492 137.994 49.4256V53.3797H136.756Z" fill="#58595B"/>
<path d="M149.554 51.0459L150.82 51.2107C150.656 51.8934 150.269 52.5021 149.72 52.9406C149.109 53.3682 148.373 53.5807 147.628 53.5447C146.555 53.5447 145.701 53.2426 145.096 52.5836C144.49 51.9246 144.16 51.0185 144.16 49.8377C144.16 48.657 144.463 47.641 145.096 46.982C145.407 46.6474 145.787 46.3835 146.21 46.2082C146.632 46.0329 147.088 45.9503 147.545 45.966C147.992 45.9475 148.438 46.0264 148.852 46.1971C149.265 46.3678 149.636 46.6262 149.94 46.9545C150.545 47.6136 150.875 48.5472 150.875 49.7553C150.876 49.8658 150.867 49.976 150.848 50.0848H145.426C145.481 50.8812 145.701 51.4853 146.114 51.8971C146.304 52.1091 146.538 52.2777 146.799 52.3915C147.06 52.5052 147.343 52.5614 147.628 52.5561C148.042 52.5641 148.447 52.4389 148.784 52.1992C149.147 51.897 149.415 51.4965 149.554 51.0459ZM145.509 49.0689H149.554C149.549 48.5733 149.385 48.0924 149.087 47.6959C148.907 47.4678 148.677 47.2846 148.414 47.1607C148.151 47.0367 147.863 46.9756 147.573 46.982C147.307 46.9745 147.043 47.0218 146.797 47.1211C146.551 47.2203 146.328 47.3693 146.142 47.5586C145.739 47.9586 145.511 48.5017 145.509 49.0689Z" fill="#58595B"/>
<path d="M152.361 53.3795V46.1304H153.462V47.2287C153.653 46.8375 153.925 46.4913 154.26 46.2128C154.493 46.0464 154.773 45.9597 155.058 45.9656C155.507 45.9821 155.943 46.1146 156.324 46.35L155.884 47.5033C155.609 47.3377 155.297 47.2433 154.976 47.2287C154.716 47.2264 154.463 47.3137 154.26 47.4759C154.038 47.6522 153.875 47.8916 153.792 48.1623C153.655 48.6257 153.59 49.1072 153.6 49.5902V53.3795H152.361Z" fill="#58595B"/>
<path d="M161.802 52.5011C161.406 52.8409 160.96 53.1187 160.481 53.3248C160.04 53.484 159.573 53.5585 159.104 53.5445C158.44 53.5861 157.783 53.3807 157.26 52.9679C157.055 52.78 156.892 52.5505 156.783 52.2948C156.674 52.039 156.621 51.763 156.627 51.4851C156.625 51.1399 156.71 50.7997 156.875 50.4966C157.026 50.2187 157.243 49.9827 157.508 49.8101C157.773 49.6185 158.072 49.4787 158.389 49.3982C158.749 49.2991 159.117 49.2348 159.49 49.206C160.236 49.1449 160.974 49.0069 161.691 48.7941V48.4646C161.726 48.0783 161.607 47.6938 161.361 47.3937C160.956 47.0967 160.459 46.9509 159.958 46.9818C159.506 46.949 159.054 47.0544 158.664 47.2839C158.345 47.561 158.131 47.9391 158.059 48.3548L156.848 48.19C156.932 47.7458 157.11 47.3246 157.371 46.9544C157.677 46.6276 158.053 46.3741 158.471 46.213C159.004 46.038 159.562 45.9544 160.123 45.9659C160.636 45.9526 161.148 46.0269 161.636 46.1855C161.967 46.2853 162.262 46.4756 162.49 46.7347C162.688 46.9813 162.821 47.2742 162.875 47.5859C162.932 47.9584 162.95 48.3356 162.93 48.7117V50.3593C162.911 51.0834 162.938 51.808 163.013 52.5285C163.069 52.8301 163.181 53.1186 163.343 53.3797H162.049C161.906 53.1074 161.822 52.808 161.802 52.5011ZM161.691 49.7552C161.038 49.9735 160.365 50.1298 159.682 50.222C159.313 50.2388 158.949 50.3225 158.609 50.4691C158.407 50.542 158.234 50.6765 158.114 50.8535C158.005 51.0364 157.948 51.2451 157.949 51.4576C157.945 51.6085 157.975 51.7583 158.037 51.8961C158.099 52.0338 158.191 52.1561 158.306 52.2539C158.622 52.4917 159.013 52.6087 159.407 52.5834C159.849 52.6013 160.287 52.4968 160.673 52.2814C161.033 52.093 161.322 51.7947 161.499 51.4302C161.652 51.0371 161.718 50.6155 161.691 50.1945V49.7552Z" fill="#58595B"/>
<path d="M167.553 52.2815L167.718 53.3798C167.412 53.454 167.098 53.4908 166.783 53.4897C166.421 53.5032 166.062 53.4278 165.737 53.27C165.517 53.1445 165.343 52.952 165.241 52.7208C165.131 52.5011 165.076 52.0069 165.076 51.2655V47.0918H164.168V46.1307H165.076V44.3459L166.315 43.6045V46.1307H167.553V47.0918H166.315V51.3479C166.292 51.5691 166.311 51.7924 166.37 52.0069C166.412 52.112 166.49 52.1993 166.59 52.254C166.717 52.3192 166.86 52.3477 167.003 52.3364C167.188 52.3415 167.373 52.3231 167.553 52.2815Z" fill="#58595B"/>
<path d="M168.764 44.7853V43.3574H170.002V44.7853H168.764ZM168.764 53.3799V46.1308H170.002V53.3799H168.764Z" fill="#58595B"/>
<path d="M171.406 49.7551C171.406 48.4096 171.792 47.4211 172.535 46.7621C173.174 46.2294 173.986 45.9464 174.819 45.9657C175.274 45.9483 175.728 46.0274 176.15 46.1978C176.572 46.3682 176.953 46.626 177.268 46.9543C177.901 47.6133 178.232 48.5194 178.232 49.6727C178.266 50.4269 178.125 51.1788 177.819 51.8694C177.531 52.3893 177.101 52.8176 176.58 53.105C176.042 53.4037 175.435 53.5553 174.819 53.5444C174.361 53.5675 173.904 53.4939 173.477 53.3282C173.051 53.1626 172.664 52.9087 172.342 52.5833C171.737 51.9243 171.406 50.9907 171.406 49.7551ZM172.672 49.7551C172.672 50.6887 172.892 51.3751 173.278 51.8419C173.466 52.0669 173.702 52.2479 173.968 52.372C174.235 52.4962 174.525 52.5605 174.819 52.5605C175.113 52.5605 175.403 52.4962 175.67 52.372C175.936 52.2479 176.172 52.0669 176.36 51.8419C176.745 51.3751 176.966 50.6612 176.966 49.7276C176.966 48.794 176.745 48.135 176.36 47.6682C176.167 47.4513 175.929 47.2778 175.663 47.159C175.398 47.0401 175.11 46.9787 174.819 46.9787C174.528 46.9787 174.24 47.0401 173.974 47.159C173.709 47.2778 173.471 47.4513 173.278 47.6682C172.892 48.135 172.672 48.8215 172.672 49.7551Z" fill="#58595B"/>
<path d="M179.662 53.3795V46.1304H180.791V47.1738C181.034 46.7861 181.376 46.4699 181.783 46.2576C182.189 46.0453 182.644 45.9445 183.102 45.9656C183.519 45.9599 183.932 46.0442 184.313 46.2128C184.639 46.3349 184.924 46.5439 185.139 46.8169C185.328 47.0897 185.459 47.398 185.524 47.723C185.579 48.1233 185.597 48.5276 185.579 48.9312V53.3795H184.368V48.9861C184.39 48.6036 184.333 48.2207 184.203 47.8603C184.12 47.6039 183.943 47.3882 183.708 47.2562C183.448 47.1097 183.153 47.034 182.855 47.0365C182.35 47.0229 181.859 47.1994 181.479 47.5308C181.093 47.8603 180.901 48.4919 180.901 49.4255V53.3795H179.662Z" fill="#58595B"/>
<path d="M187.672 53.3799V43.3574H194.938V44.5656H188.993V47.6135H194.552V48.7943H188.993V52.1992H195.158V53.3799H187.672Z" fill="#58595B"/>
<path d="M203.607 43.3574H204.928V49.1512C204.963 49.972 204.841 50.7919 204.57 51.5676C204.337 52.1646 203.911 52.667 203.359 52.9955C202.641 53.4074 201.82 53.6073 200.992 53.5721C200.193 53.6027 199.398 53.4328 198.681 53.0778C198.112 52.7675 197.665 52.2738 197.415 51.6774C197.139 51.0734 197.029 50.2221 197.029 49.1512V43.3574H198.35V49.1512C198.318 49.8015 198.402 50.4524 198.598 51.0734C198.755 51.4787 199.046 51.818 199.424 52.0344C199.874 52.2653 200.376 52.3787 200.882 52.3639C201.873 52.3639 202.561 52.1442 202.974 51.7049C203.387 51.2656 203.607 50.4143 203.607 49.1512V43.3574Z" fill="#58595B"/>
</svg>
