<svg width="214" height="29" viewBox="0 0 214 29" fill="none" xmlns="http://www.w3.org/2000/svg">
<path fill-rule="evenodd" clip-rule="evenodd" d="M11.8434 7.7619C11.0454 7.18685 10.1356 6.78151 9.17143 6.57143C8.09303 6.30605 6.98477 6.17803 5.87357 6.19047H0V24.3095H5.87357V19.9762C6.98477 19.9886 8.09303 19.8606 9.17143 19.5952C10.1356 19.3852 11.0454 18.9798 11.8434 18.4048C12.6177 17.8519 13.2387 17.1149 13.6488 16.2619C14.1062 15.4048 14.3228 14.3333 14.3228 13.0714C14.3579 11.9701 14.1268 10.8763 13.6488 9.88095C13.2379 9.03491 12.6168 8.30582 11.8434 7.7619ZM7.79933 14.5714C7.46232 14.9048 6.90866 15.0952 6.11429 15.0952H5.87357V11.0714H6.11429C6.90866 11.0714 7.46232 11.2381 7.79933 11.5952C8.15348 12.0047 8.33452 12.5334 8.30484 13.0714C8.3383 13.6172 8.15718 14.1547 7.79933 14.5714ZM22.9165 6.19047H16.8022V24.3095H27.9957V19.5476H22.9165V6.19047ZM44.461 0.904762H40.3928L38.106 5.11905H41.139L44.461 0.904762ZM37.1912 6.19047L30.2104 24.3095H36.0117L36.6135 22.6667H42.1982L42.8 24.3095H48.5773L41.5964 6.19047H37.1912ZM38.1541 18.6667L39.4059 15.5L40.6335 18.6667H38.1541ZM61.1188 13.1667L56.0396 6.19047H51.2011V24.3095H56.9784V17.3571L62.0335 24.3095H66.872V6.19047H61.1188V13.1667ZM105.772 8.52381C104.886 7.66 103.84 6.97291 102.691 6.5C101.509 5.99758 100.235 5.73848 98.9479 5.73848C97.6609 5.73848 96.3873 5.99758 95.2047 6.5C94.0559 6.97291 93.0099 7.66 92.1235 8.52381C91.2486 9.39505 90.5464 10.4207 90.0533 11.5476C89.5454 12.7173 89.2834 13.977 89.2834 15.25C89.2834 16.523 89.5454 17.7827 90.0533 18.9524C90.5408 20.0824 91.2436 21.109 92.1235 21.9762C93.0089 22.8472 94.0548 23.5422 95.2047 24.0238C96.3914 24.5104 97.6633 24.7609 98.9479 24.7609C100.232 24.7609 101.504 24.5104 102.691 24.0238C103.841 23.5422 104.887 22.8472 105.772 21.9762C106.652 21.109 107.355 20.0824 107.843 18.9524C108.35 17.7827 108.612 16.523 108.612 15.25C108.612 13.977 108.35 12.7173 107.843 11.5476C107.349 10.4207 106.647 9.39505 105.772 8.52381ZM102.499 16.7381C102.31 17.1925 102.032 17.6054 101.68 17.9528C101.329 18.3001 100.912 18.5752 100.452 18.7619C99.4863 19.1423 98.4096 19.1423 97.4434 18.7619C96.984 18.5752 96.5666 18.3001 96.2154 17.9528C95.8641 17.6054 95.5861 17.1925 95.3973 16.7381C95.1858 16.2744 95.079 15.7706 95.0844 15.2619C95.0766 14.753 95.1835 14.2487 95.3973 13.7857C95.5839 13.3302 95.8624 12.917 96.2158 12.5714C96.5672 12.2244 96.9844 11.9493 97.4434 11.7619C97.9182 11.5581 98.4303 11.4529 98.9479 11.4529C99.4655 11.4529 99.9776 11.5581 100.452 11.7619C100.911 11.9493 101.329 12.2244 101.68 12.5714C102.033 12.917 102.312 13.3302 102.499 13.7857C102.712 14.2487 102.819 14.753 102.811 15.2619C102.817 15.7706 102.71 16.2744 102.499 16.7381ZM124.356 15.3571C124.034 14.9824 123.662 14.6539 123.249 14.381C123.53 14.1563 123.767 13.8818 123.947 13.5714C124.136 13.2473 124.289 12.9041 124.404 12.5476C124.579 12.0753 124.661 11.5742 124.645 11.0714C124.652 10.3327 124.496 9.60138 124.187 8.92857C123.886 8.33731 123.449 7.82373 122.912 7.42857C122.334 6.98842 121.67 6.67217 120.962 6.5C120.138 6.28286 119.287 6.17871 118.434 6.19047H111.237V24.3095H118.723C119.677 24.3173 120.627 24.1808 121.539 23.9048C122.317 23.6698 123.037 23.2809 123.658 22.7619C124.239 22.2666 124.7 21.6481 125.006 20.9524C125.325 20.2075 125.481 19.4041 125.463 18.5952C125.478 17.9369 125.363 17.2819 125.126 16.6667C124.925 16.2003 124.667 15.7604 124.356 15.3571ZM116.918 10.4524H117.568C118.482 10.4524 118.94 10.8571 118.94 11.6905C118.94 12.5238 118.482 12.9524 117.568 12.9524H116.918V10.4524ZM117.568 20.0476H116.918V16.881H117.568C118.964 16.881 119.662 17.4048 119.662 18.4524C119.662 19.5 118.964 20.0476 117.568 20.0476ZM138.27 13.1667L133.19 6.19047H128.352V24.3095H134.129V17.3571L139.184 24.3095H144.023V6.19047H138.27V13.1667ZM163.136 8.52381C162.25 7.66 161.203 6.97291 160.055 6.5C158.869 5.99261 157.591 5.73321 156.299 5.7381C155.016 5.73305 153.745 5.99253 152.568 6.5C151.419 6.97291 150.373 7.66 149.487 8.52381C148.604 9.38867 147.901 10.4159 147.417 11.5476C146.909 12.7173 146.647 13.977 146.647 15.25C146.647 16.523 146.909 17.7827 147.417 18.9524C147.895 20.0871 148.599 21.1154 149.487 21.9762C150.372 22.8472 151.418 23.5422 152.568 24.0238C153.747 24.5238 155.017 24.7752 156.299 24.7619C157.589 24.775 158.868 24.5237 160.055 24.0238C161.205 23.5422 162.251 22.8472 163.136 21.9762C164.016 21.109 164.719 20.0824 165.206 18.9524C165.714 17.7827 165.976 16.523 165.976 15.25C165.976 13.977 165.714 12.7173 165.206 11.5476C164.713 10.4207 164.011 9.39505 163.136 8.52381ZM159.862 16.7381C159.673 17.1925 159.395 17.6054 159.044 17.9528C158.693 18.3001 158.275 18.5752 157.816 18.7619C157.334 18.9549 156.819 19.052 156.299 19.0476C155.788 19.052 155.28 18.9549 154.807 18.7619C154.353 18.5656 153.937 18.2916 153.579 17.9524C153.228 17.6047 152.95 17.1921 152.761 16.7381C152.549 16.2744 152.443 15.7706 152.448 15.2619C152.44 14.753 152.547 14.2487 152.761 13.7857C152.939 13.3258 153.219 12.9109 153.579 12.5714C153.931 12.2244 154.348 11.9493 154.807 11.7619C155.275 11.5504 155.785 11.4447 156.299 11.4524C156.822 11.4443 157.34 11.55 157.816 11.7619C158.275 11.9493 158.692 12.2244 159.044 12.5714C159.397 12.917 159.675 13.3302 159.862 13.7857C160.076 14.2487 160.183 14.753 160.175 15.2619C160.18 15.7706 160.074 16.2744 159.862 16.7381ZM175.509 14.0476L172.404 6.19047H165.976L173.15 24.3095H177.916L185.09 6.19047H178.662L175.509 14.0476ZM194.309 10L192.191 6.19047H185.643L191.348 16.5V24.3095H197.222V16.5L202.951 6.19047H196.403L194.309 10ZM211.521 0H205.551V2.45238H211.521V8.30952H214V0H211.521ZM211.521 26.4286H205.551V28.8809H214V20.5476H211.521V26.4286ZM80.8097 20.6905H78.3062V29H86.7555V26.5476H80.8097V20.6905ZM78.3062 0.142859V8.45238H80.8097V2.59524H86.7555V0.142859H78.3062Z" fill="#282068"/>
</svg>
