<svg width="30" height="24" viewBox="0 0 30 24" fill="none" xmlns="http://www.w3.org/2000/svg">
<path d="M27.7214 0.0139084C24.8089 0.226497 20.9527 2.88 17.961 7.02567C15.8333 9.97412 13.5046 14.6653 13.5046 18.4203C13.5046 21.3658 15.9363 23.7536 18.9359 23.7536C21.9356 23.7536 24.3673 21.3658 24.3673 18.4203C24.3673 15.9126 22.6048 13.8092 20.2299 13.2392C20.8258 11.258 21.893 9.10337 23.3923 7.02567C25.389 4.25885 27.7707 2.15668 30 1.00119L27.7214 0.0139084Z" fill="#B58840"/>
<path d="M4.4564 7.02557C7.60225 2.66622 11.7042 -0.0431738 14.6594 0.000520662L16.7138 0.890673C14.4225 2.01967 11.9497 4.16818 9.88774 7.02557C8.3884 9.10327 7.32116 11.2579 6.72529 13.2391C9.1002 13.8091 10.8627 15.9125 10.8627 18.4202C10.8627 21.3657 8.43098 23.7535 5.43134 23.7535C2.43169 23.7535 0 21.3657 0 18.4202C0 14.6652 2.3287 9.97402 4.4564 7.02557Z" fill="#B58840"/>
</svg>
