<svg width="30" height="24" viewBox="0 0 30 24" fill="none" xmlns="http://www.w3.org/2000/svg">
<path d="M2.27861 23.9859C5.19106 23.7712 9.04735 21.0901 12.039 16.9015C14.1667 13.9224 16.4954 9.1826 16.4954 5.38866C16.4954 2.41259 14.0637 1.90735e-06 11.0641 1.90735e-06C8.06442 1.90735e-06 5.63273 2.41259 5.63273 5.38866C5.63273 7.92233 7.3952 10.0476 9.77011 10.6235C9.17424 12.6252 8.107 14.8022 6.60766 16.9015C4.61104 19.697 2.22927 21.821 0 22.9884L2.27861 23.9859Z" fill="#B58840"/>
<path d="M25.5436 16.9016C22.3977 21.3061 18.2958 24.0436 15.3406 23.9995L13.2862 23.1001C15.5775 21.9594 18.0503 19.7886 20.1123 16.9016C21.6116 14.8023 22.6788 12.6253 23.2747 10.6236C20.8998 10.0477 19.1373 7.92243 19.1373 5.38876C19.1373 2.41269 21.569 9.91821e-05 24.5687 9.91821e-05C27.5683 9.91821e-05 30 2.41269 30 5.38876C30 9.18269 27.6713 13.9225 25.5436 16.9016Z" fill="#B58840"/>
</svg>
